<?xml version="1.0" encoding="UTF-8"?>
<svg id="Layer_1" data-name="Layer 1" xmlns="http://www.w3.org/2000/svg" viewBox="0 0 800 600">
  <defs>
    <style>
      .cls-1 {
        stroke: #f15a24;
        stroke-width: 4px;
      }

      .cls-1, .cls-2, .cls-3 {
        fill: none;
        stroke-linecap: square;
        stroke-miterlimit: 10;
      }

      .cls-4, .cls-5 {
        fill: #f15a24;
      }

      .cls-6 {
        fill: gray;
      }

      .cls-7 {
        fill: #e6e6e6;
      }

      .cls-8, .cls-5 {
        font-family: HelveticaNeue, 'Helvetica Neue';
        font-size: 26px;
      }

      .cls-2 {
        stroke-dasharray: 4;
      }

      .cls-2, .cls-3 {
        stroke: gray;
        stroke-width: 1.4px;
      }

      .cls-9 {
        letter-spacing: 0em;
      }

      .cls-10 {
        letter-spacing: 0em;
      }

      .cls-11 {
        fill: #f2f2f2;
      }

      .cls-12 {
        letter-spacing: -.02em;
      }

      .cls-13 {
        letter-spacing: -.02em;
      }
    </style>
  </defs>
  <rect class="cls-11" x="108.03" y="337.91" width="110" height="50" rx="7.5" ry="7.5" transform="translate(326.06 725.82) rotate(180)"/>
  <text class="cls-8" transform="translate(130.49 370.82)"><tspan x="0" y="0">Batch</tspan></text>
  <rect class="cls-11" x="247.57" y="337.91" width="110" height="50" rx="7.5" ry="7.5"/>
  <text class="cls-8" transform="translate(261.14 369.56)"><tspan x="0" y="0">Embed</tspan></text>
  <rect class="cls-11" x="389.89" y="337.91" width="198.04" height="50" rx="7.5" ry="7.5"/>
  <text class="cls-8" transform="translate(407.01 371.23)"><tspan x="0" y="0">P</tspan><tspan class="cls-13" x="16.85" y="0">r</tspan><tspan class="cls-9" x="25.04" y="0">efill/Decode</tspan></text>
  <rect class="cls-11" x="612.96" y="337.91" width="110" height="50" rx="7.5" ry="7.5"/>
  <text class="cls-8" transform="translate(625.35 369.56)"><tspan x="0" y="0">Sample</tspan></text>
  <line class="cls-1" x1="78.49" y1="449.35" x2="739.94" y2="449.35"/>
  <line class="cls-1" x1="723.55" y1="363.5" x2="740.02" y2="363.5"/>
  <line class="cls-1" x1="740.02" y1="363.5" x2="740.02" y2="449.35"/>
  <line class="cls-1" x1="78.49" y1="364.18" x2="78.49" y2="449.35"/>
  <g>
    <line class="cls-1" x1="78.49" y1="363.08" x2="96.72" y2="363.08"/>
    <path class="cls-4" d="M107.1,363.08c-4.88,1.81-10.94,4.9-14.7,8.18l2.96-8.18-2.96-8.18c3.76,3.28,9.82,6.37,14.7,8.18Z"/>
  </g>
  <g>
    <line class="cls-1" x1="221.41" y1="362.91" x2="232.6" y2="362.91"/>
    <path class="cls-4" d="M242.98,362.91c-4.88,1.81-10.94,4.9-14.7,8.18l2.96-8.18-2.96-8.18c3.76,3.28,9.82,6.37,14.7,8.18Z"/>
  </g>
  <g>
    <line class="cls-1" x1="362.23" y1="363.08" x2="373.43" y2="363.08"/>
    <path class="cls-4" d="M383.81,363.08c-4.88,1.81-10.94,4.9-14.7,8.18l2.96-8.18-2.96-8.18c3.76,3.28,9.82,6.37,14.7,8.18Z"/>
  </g>
  <g>
    <line class="cls-1" x1="590.79" y1="363.5" x2="601.98" y2="363.5"/>
    <path class="cls-4" d="M612.36,363.5c-4.88,1.81-10.94,4.9-14.7,8.18l2.96-8.18-2.96-8.18c3.76,3.28,9.82,6.37,14.7,8.18Z"/>
  </g>
  <g>
    <line class="cls-1" x1="157.93" y1="261.54" x2="157.93" y2="321.48"/>
    <path class="cls-4" d="M157.93,331.86c-1.81-4.88-4.9-10.94-8.18-14.7l8.18,2.96,8.18-2.96c-3.28,3.76-6.37,9.82-8.18,14.7Z"/>
  </g>
  <g>
    <line class="cls-1" x1="673.15" y1="336.65" x2="673.15" y2="279.24"/>
    <path class="cls-4" d="M673.15,268.86c1.81,4.88,4.9,10.94,8.18,14.7l-8.18-2.96-8.18,2.96c3.28-3.76,6.37-9.82,8.18-14.7Z"/>
  </g>
  <text class="cls-8" transform="translate(318.73 223.25)"><tspan x="0" y="0">p</tspan><tspan class="cls-13" x="15.42" y="0">r</tspan><tspan class="cls-9" x="23.61" y="0">ompts</tspan></text>
  <text class="cls-8" transform="translate(171.43 299.91)"><tspan x="0" y="0">new p</tspan><tspan class="cls-13" x="70.77" y="0">r</tspan><tspan class="cls-9" x="78.96" y="0">ompts</tspan></text>
  <text class="cls-8" transform="translate(509.28 306.99)"><tspan x="0" y="0">output token</tspan></text>
  <text class="cls-8" transform="translate(27.02 223.25)"><tspan x="0" y="0">LLM serving system</tspan></text>
  <path class="cls-6" d="M748.85,260.65c7.51,0,13.62,6.11,13.62,13.62v190.95c0,7.51-6.11,13.62-13.62,13.62H65.16c-7.51,0-13.62-6.11-13.62-13.62v-190.95c0-7.51,6.11-13.62,13.62-13.62h683.69M748.85,259.25H65.16c-8.3,0-15.02,6.72-15.02,15.02v190.95c0,8.3,6.72,15.02,15.02,15.02h683.69c8.3,0,15.02-6.72,15.02-15.02v-190.95c0-8.3-6.72-15.02-15.02-15.02h0Z"/>
  <line class="cls-2" x1="33.66" y1="181.46" x2="766.34" y2="181.46"/>
  <text class="cls-8" transform="translate(29.06 149.25)"><tspan x="0" y="0">Users</tspan></text>
  <g>
    <line class="cls-3" x1="484.21" y1="146.5" x2="484.21" y2="248.34"/>
    <polygon class="cls-6" points="484.21 137.6 479.09 150.14 484.21 147.16 489.33 150.14 484.21 137.6"/>
    <path class="cls-6" d="M484.21,255.94c-1.33-3.58-3.59-8.02-5.99-10.77l5.99,2.17,5.99-2.17c-2.4,2.75-4.66,7.19-5.99,10.77Z"/>
  </g>
  <g>
    <line class="cls-3" x1="680.68" y1="146.5" x2="680.68" y2="248.34"/>
    <polygon class="cls-6" points="680.68 137.6 675.56 150.14 680.68 147.16 685.81 150.14 680.68 137.6"/>
    <path class="cls-6" d="M680.68,255.94c-1.33-3.58-3.59-8.02-5.99-10.77l5.99,2.17,5.99-2.17c-2.4,2.75-4.66,7.19-5.99,10.77Z"/>
  </g>
  <g>
    <line class="cls-3" x1="300.93" y1="146.5" x2="300.93" y2="248.34"/>
    <polygon class="cls-6" points="300.93 137.6 295.8 150.14 300.93 147.16 306.05 150.14 300.93 137.6"/>
    <path class="cls-6" d="M300.93,255.94c-1.33-3.58-3.59-8.02-5.99-10.77l5.99,2.17,5.99-2.17c-2.4,2.75-4.66,7.19-5.99,10.77Z"/>
  </g>
  <text class="cls-5" transform="translate(248.43 431.88)"><tspan x="0" y="0">Global auto</tspan><tspan class="cls-13" x="134.34" y="0">r</tspan><tspan x="142.53" y="0">eg</tspan><tspan class="cls-12" x="171.41" y="0">r</tspan><tspan class="cls-10" x="179.6" y="0">essive loop</tspan></text>
  <rect class="cls-7" x="417.62" y="77.65" width="139.72" height="50.94" rx="7.5" ry="7.5"/>
  <rect class="cls-7" x="607.58" y="77.65" width="139.72" height="50.94" rx="7.5" ry="7.5"/>
  <rect class="cls-7" x="227.67" y="77.65" width="139.72" height="50.94" rx="7.5" ry="7.5"/>
  <text class="cls-8" transform="translate(245.74 111.73)"><tspan x="0" y="0">LLM app</tspan></text>
  <text class="cls-8" transform="translate(436.56 111.73)"><tspan x="0" y="0">LLM app</tspan></text>
  <text class="cls-8" transform="translate(627.38 111.73)"><tspan x="0" y="0">LLM app</tspan></text>
</svg>