<?xml version="1.0" encoding="UTF-8"?>
<svg id="Layer_1" data-name="Layer 1" xmlns="http://www.w3.org/2000/svg" xmlns:xlink="http://www.w3.org/1999/xlink" viewBox="0 0 80 80">
  <defs>
    <style>
      .cls-1 {
        fill: url(#linear-gradient);
      }

      .cls-2 {
        fill: #fff;
      }
    </style>
    <linearGradient id="linear-gradient" x1="15.54" y1="41.69" x2="63.32" y2="41.69" gradientUnits="userSpaceOnUse">
      <stop offset="0" stop-color="#666"/>
      <stop offset="1" stop-color="#000"/>
    </linearGradient>
  </defs>
  <rect class="cls-2" x="7.67" y="7.67" width="63.52" height="63.52" rx="16.7" ry="16.7"/>
  <path class="cls-1" d="M43.69,64.56c-2.13,0-4.12-.95-5.47-2.66l-21.17-26.73c-1.57-1.99-1.96-4.58-1.02-6.94s2.99-3.98,5.5-4.35l33.73-4.96c2.51-.37,4.95.6,6.52,2.59,1.57,1.99,1.96,4.58,1.02,6.94l-12.57,31.7c-.93,2.36-2.99,3.99-5.5,4.35-.35.05-.7.08-1.05.08ZM56.31,25.03s-.09,0-.14.01h0l-33.73,4.96c-.38.06-.56.31-.64.5s-.12.5.12.8l21.17,26.73c.24.3.55.33.76.3.21-.03.49-.14.64-.5l12.57-31.7c.14-.36.01-.64-.12-.8-.12-.15-.31-.31-.62-.31Z"/>
</svg>