<?xml version="1.0" encoding="UTF-8"?>
<svg id="Layer_1" data-name="Layer 1" xmlns="http://www.w3.org/2000/svg" viewBox="0 0 1620.58 603.85">
  <defs>
    <style>
      .cls-1, .cls-2, .cls-3, .cls-4, .cls-5 {
        font-size: 26px;
      }

      .cls-1, .cls-3, .cls-6, .cls-5 {
        font-family: HelveticaNeue, 'Helvetica Neue';
      }

      .cls-1, .cls-7 {
        fill: #fff;
      }

      .cls-8 {
        stroke: #f15a24;
        stroke-width: 4px;
      }

      .cls-8, .cls-9, .cls-10 {
        fill: none;
        stroke-linecap: square;
        stroke-miterlimit: 10;
      }

      .cls-11, .cls-5 {
        fill: #f15a24;
      }

      .cls-12 {
        fill: gray;
      }

      .cls-13 {
        fill: #e6e6e6;
      }

      .cls-2 {
        font-family: HelveticaNeue-Bold, 'Helvetica Neue';
      }

      .cls-2, .cls-14 {
        font-weight: 700;
      }

      .cls-6 {
        font-size: 25.61px;
      }

      .cls-9 {
        stroke-dasharray: 4;
      }

      .cls-9, .cls-10 {
        stroke: gray;
        stroke-width: 1.4px;
      }

      .cls-14 {
        font-family: Helvetica-Bold, Helvetica;
        font-size: 17px;
      }

      .cls-15 {
        letter-spacing: 0em;
      }

      .cls-4, .cls-7 {
        font-family: HelveticaNeue-LightItalic, 'Helvetica Neue';
        font-style: italic;
        font-weight: 300;
      }

      .cls-16 {
        letter-spacing: 0em;
      }

      .cls-17 {
        fill: #f2f2f2;
      }

      .cls-18 {
        letter-spacing: -.02em;
      }

      .cls-19 {
        letter-spacing: -.02em;
      }

      .cls-7 {
        font-size: 22px;
      }
    </style>
  </defs>
  <rect class="cls-13" x="1265.71" y="79.03" width="139.72" height="50.94" rx="7.5" ry="7.5"/>
  <rect class="cls-13" x="1455.66" y="79.03" width="139.72" height="50.94" rx="7.5" ry="7.5"/>
  <rect class="cls-17" x="83.98" y="339.29" width="110" height="50" rx="7.5" ry="7.5" transform="translate(277.96 728.57) rotate(180)"/>
  <text class="cls-3" transform="translate(106.45 372.2)"><tspan x="0" y="0">Batch</tspan></text>
  <rect class="cls-17" x="223.52" y="339.29" width="110" height="50" rx="7.5" ry="7.5"/>
  <text class="cls-3" transform="translate(237.09 370.94)"><tspan x="0" y="0">Embed</tspan></text>
  <rect class="cls-17" x="365.84" y="339.29" width="198.04" height="50" rx="7.5" ry="7.5"/>
  <text class="cls-3" transform="translate(382.96 372.61)"><tspan x="0" y="0">P</tspan><tspan class="cls-19" x="16.85" y="0">r</tspan><tspan class="cls-15" x="25.04" y="0">efill/Decode</tspan></text>
  <rect class="cls-17" x="588.91" y="339.29" width="110" height="50" rx="7.5" ry="7.5"/>
  <text class="cls-3" transform="translate(601.31 370.94)"><tspan x="0" y="0">Sample</tspan></text>
  <line class="cls-8" x1="54.44" y1="450.73" x2="715.89" y2="450.73"/>
  <line class="cls-8" x1="699.51" y1="364.88" x2="715.97" y2="364.88"/>
  <line class="cls-8" x1="715.97" y1="364.88" x2="715.97" y2="450.73"/>
  <line class="cls-8" x1="54.44" y1="365.56" x2="54.44" y2="450.73"/>
  <g>
    <line class="cls-8" x1="54.44" y1="364.46" x2="72.67" y2="364.46"/>
    <path class="cls-11" d="M83.05,364.46c-4.88,1.81-10.94,4.9-14.7,8.18l2.96-8.18-2.96-8.18c3.76,3.28,9.82,6.37,14.7,8.18Z"/>
  </g>
  <g>
    <line class="cls-8" x1="197.36" y1="364.29" x2="208.56" y2="364.29"/>
    <path class="cls-11" d="M218.94,364.29c-4.88,1.81-10.94,4.9-14.7,8.18l2.96-8.18-2.96-8.18c3.76,3.28,9.82,6.37,14.7,8.18Z"/>
  </g>
  <g>
    <line class="cls-8" x1="338.19" y1="364.46" x2="349.38" y2="364.46"/>
    <path class="cls-11" d="M359.76,364.46c-4.88,1.81-10.94,4.9-14.7,8.18l2.96-8.18-2.96-8.18c3.76,3.28,9.82,6.37,14.7,8.18Z"/>
  </g>
  <g>
    <line class="cls-8" x1="566.74" y1="364.88" x2="577.94" y2="364.88"/>
    <path class="cls-11" d="M588.32,364.88c-4.88,1.81-10.94,4.9-14.7,8.18l2.96-8.18-2.96-8.18c3.76,3.28,9.82,6.37,14.7,8.18Z"/>
  </g>
  <g>
    <line class="cls-8" x1="133.89" y1="262.92" x2="133.89" y2="322.86"/>
    <path class="cls-11" d="M133.89,333.24c-1.81-4.88-4.9-10.94-8.18-14.7l8.18,2.96,8.18-2.96c-3.28,3.76-6.37,9.82-8.18,14.7Z"/>
  </g>
  <g>
    <line class="cls-8" x1="649.1" y1="338.03" x2="649.1" y2="280.62"/>
    <path class="cls-11" d="M649.1,270.24c1.81,4.88,4.9,10.94,8.18,14.7l-8.18-2.96-8.18,2.96c3.28-3.76,6.37-9.82,8.18-14.7Z"/>
  </g>
  <text class="cls-3" transform="translate(294.68 224.63)"><tspan x="0" y="0">p</tspan><tspan class="cls-19" x="15.42" y="0">r</tspan><tspan class="cls-15" x="23.61" y="0">ompts</tspan></text>
  <text class="cls-3" transform="translate(147.39 301.29)"><tspan x="0" y="0">new p</tspan><tspan class="cls-19" x="70.77" y="0">r</tspan><tspan class="cls-15" x="78.96" y="0">ompts</tspan></text>
  <text class="cls-3" transform="translate(485.24 308.36)"><tspan x="0" y="0">output token</tspan></text>
  <text class="cls-3" transform="translate(2.98 224.63)"><tspan x="0" y="0">LLM serving system</tspan></text>
  <path class="cls-12" d="M724.81,262.02c7.51,0,13.62,6.11,13.62,13.62v190.95c0,7.51-6.11,13.62-13.62,13.62H41.11c-7.51,0-13.62-6.11-13.62-13.62v-190.95c0-7.51,6.11-13.62,13.62-13.62h683.69M724.81,260.63H41.11c-8.3,0-15.02,6.72-15.02,15.02v190.95c0,8.3,6.72,15.02,15.02,15.02h683.69c8.3,0,15.02-6.72,15.02-15.02v-190.95c0-8.3-6.72-15.02-15.02-15.02h0Z"/>
  <line class="cls-9" x1="9.61" y1="182.84" x2="742.3" y2="182.84"/>
  <g>
    <path d="M1160.06,210.32v1.82h.05c.37-.75.94-1.29,1.72-1.62.78-.34,1.64-.51,2.57-.51,1.04,0,1.95.19,2.72.57.77.38,1.41.9,1.92,1.55.51.65.9,1.4,1.16,2.25.26.85.39,1.75.39,2.7s-.13,1.85-.38,2.7c-.25.85-.63,1.59-1.14,2.22-.51.63-1.15,1.13-1.92,1.5-.77.36-1.67.55-2.69.55-.33,0-.7-.04-1.1-.1-.41-.07-.81-.18-1.21-.34-.4-.16-.78-.37-1.13-.64-.36-.27-.65-.6-.9-1h-.05v6.92h-2.21v-18.56h2.21ZM1168,215.09c-.17-.6-.42-1.13-.75-1.6-.34-.47-.77-.84-1.3-1.12-.53-.28-1.15-.42-1.86-.42-.75,0-1.38.15-1.9.44-.52.29-.94.68-1.27,1.16-.33.48-.57,1.02-.71,1.62-.15.61-.22,1.22-.22,1.85,0,.66.08,1.3.23,1.91.16.62.4,1.16.74,1.62s.78.85,1.31,1.13c.54.29,1.19.43,1.95.43s1.4-.15,1.91-.44.92-.68,1.23-1.17c.31-.49.54-1.04.68-1.66.14-.62.21-1.26.21-1.92,0-.62-.08-1.24-.25-1.83Z"/>
    <path d="M1175.19,210.32v2.83h.05c.54-1.09,1.2-1.9,1.98-2.42.78-.52,1.77-.76,2.96-.73v2.34c-.88,0-1.64.12-2.26.36-.62.24-1.13.6-1.51,1.07-.38.47-.66,1.04-.83,1.7-.17.67-.26,1.43-.26,2.3v5.98h-2.21v-13.44h2.08Z"/>
    <path d="M1181.06,214.29c.28-.86.69-1.6,1.25-2.24.55-.63,1.24-1.13,2.05-1.5.82-.36,1.75-.55,2.81-.55s2.02.18,2.82.55,1.49.86,2.04,1.5c.55.63.97,1.38,1.25,2.24.28.86.42,1.78.42,2.77s-.14,1.91-.42,2.76c-.28.85-.69,1.59-1.25,2.22-.56.63-1.24,1.13-2.04,1.48s-1.75.53-2.82.53-1.99-.18-2.81-.53c-.81-.36-1.5-.85-2.05-1.48-.56-.63-.97-1.37-1.25-2.22-.28-.85-.42-1.77-.42-2.76s.14-1.91.42-2.77ZM1183.31,219.23c.22.63.52,1.16.9,1.59.38.42.83.75,1.34.98.51.22,1.05.34,1.62.34s1.11-.11,1.62-.34c.51-.23.96-.55,1.34-.98s.68-.95.9-1.59.32-1.36.32-2.17-.11-1.54-.32-2.17-.52-1.17-.9-1.6c-.38-.43-.83-.76-1.34-.99s-1.05-.34-1.62-.34-1.11.11-1.62.34-.96.55-1.34.99c-.38.43-.68.97-.9,1.6s-.32,1.36-.32,2.17.11,1.54.32,2.17Z"/>
    <path d="M1206.39,227.56c-1,1.09-2.58,1.64-4.73,1.64-.62,0-1.26-.07-1.91-.21s-1.24-.36-1.77-.68c-.53-.31-.97-.72-1.31-1.22-.35-.5-.54-1.12-.57-1.85h2.21c.02.4.14.74.38,1.01.23.28.52.5.86.68.34.17.71.3,1.1.38s.78.12,1.14.12c.73,0,1.34-.13,1.85-.38.5-.25.92-.6,1.25-1.04.33-.44.57-.97.71-1.6.15-.62.22-1.31.22-2.05v-.88h-.05c-.38.83-.96,1.44-1.73,1.83-.77.39-1.59.58-2.46.58-1,0-1.88-.18-2.63-.55-.75-.36-1.37-.85-1.87-1.47s-.88-1.33-1.13-2.16-.38-1.69-.38-2.61c0-.8.1-1.62.31-2.46.21-.84.55-1.6,1.04-2.29.48-.68,1.13-1.25,1.92-1.69.8-.44,1.78-.66,2.94-.66.85,0,1.63.19,2.34.56.71.37,1.27.93,1.66,1.68h.03v-1.92h2.08v12.3c0,2.2-.5,3.85-1.51,4.94ZM1203.57,221.51c.51-.3.92-.7,1.23-1.2.31-.49.54-1.05.69-1.68.15-.62.22-1.25.22-1.87,0-.59-.07-1.17-.21-1.74-.14-.57-.36-1.09-.66-1.55-.3-.46-.7-.83-1.18-1.1s-1.08-.42-1.77-.42-1.32.13-1.82.4c-.5.27-.92.63-1.24,1.08-.32.45-.55.97-.7,1.56-.15.59-.22,1.21-.22,1.85,0,.61.06,1.21.18,1.82.12.61.33,1.16.62,1.65s.69.89,1.17,1.2c.49.3,1.09.46,1.82.46s1.35-.15,1.86-.46Z"/>
    <path d="M1213.22,210.32v2.83h.05c.54-1.09,1.2-1.9,1.98-2.42.78-.52,1.77-.76,2.96-.73v2.34c-.88,0-1.64.12-2.26.36s-1.13.6-1.51,1.07c-.38.47-.66,1.04-.83,1.7-.17.67-.26,1.43-.26,2.3v5.98h-2.21v-13.44h2.08Z"/>
    <path d="M1231.79,223.71c-.38.22-.91.34-1.59.34-.57,0-1.03-.16-1.37-.48-.34-.32-.51-.84-.51-1.57-.61.73-1.31,1.25-2.12,1.57-.81.32-1.68.48-2.61.48-.61,0-1.18-.07-1.73-.21-.54-.14-1.02-.36-1.42-.65-.4-.29-.71-.68-.95-1.16s-.35-1.05-.35-1.73c0-.76.13-1.39.39-1.87s.6-.88,1.03-1.18c.42-.3.91-.53,1.46-.69.55-.16,1.11-.29,1.68-.39.61-.12,1.18-.21,1.73-.27.55-.06,1.03-.15,1.44-.26.42-.11.74-.28.99-.49.24-.22.36-.53.36-.95,0-.48-.09-.88-.27-1.17-.18-.29-.42-.52-.7-.68-.29-.16-.61-.26-.96-.31-.36-.05-.71-.08-1.05-.08-.94,0-1.71.18-2.34.53-.62.36-.96,1.03-1.01,2.02h-2.21c.03-.83.21-1.53.52-2.11.31-.57.73-1.04,1.25-1.39.52-.36,1.11-.61,1.78-.77.67-.16,1.38-.23,2.15-.23.61,0,1.21.04,1.81.13s1.14.26,1.62.53c.48.27.88.64,1.17,1.13s.44,1.12.44,1.89v6.9c0,.52.03.9.09,1.14s.26.36.61.36c.19,0,.42-.03.68-.1v1.72ZM1228.2,216.82c-.28.21-.64.36-1.09.45-.45.1-.92.17-1.42.23s-.99.13-1.49.21c-.5.08-.95.2-1.35.38-.4.17-.72.42-.98.74-.25.32-.38.75-.38,1.31,0,.36.07.67.22.92s.34.45.57.61c.23.16.51.27.82.34.31.07.64.1.99.1.73,0,1.35-.1,1.87-.3s.94-.45,1.27-.75c.33-.3.57-.63.73-.98.16-.35.23-.69.23-1v-2.25Z"/>
    <path d="M1235.92,210.32v1.98h.05c1.01-1.53,2.45-2.29,4.34-2.29.83,0,1.59.17,2.26.52.68.35,1.15.94,1.43,1.77.45-.73,1.04-1.29,1.78-1.69.74-.4,1.55-.6,2.43-.6.68,0,1.29.07,1.83.22.55.15,1.01.38,1.4.69.39.31.69.71.91,1.21s.33,1.09.33,1.78v9.85h-2.21v-8.81c0-.42-.04-.81-.1-1.17-.07-.36-.2-.68-.39-.95-.19-.27-.46-.48-.79-.64-.34-.16-.78-.23-1.31-.23-1.09,0-1.95.31-2.57.94s-.94,1.46-.94,2.5v8.37h-2.21v-8.81c0-.43-.04-.83-.12-1.2-.08-.36-.21-.68-.4-.95-.19-.27-.45-.48-.77-.62-.32-.15-.73-.22-1.23-.22-.64,0-1.19.13-1.65.39-.46.26-.83.57-1.12.94-.29.36-.49.74-.62,1.13-.13.39-.2.71-.2.97v8.37h-2.21v-13.44h2.08Z"/>
  </g>
  <path class="cls-12" d="M1586.77,259.73c7.51,0,13.62,6.11,13.62,13.62v304.17c0,7.51-6.11,13.62-13.62,13.62h-725.33c-7.51,0-13.62-6.11-13.62-13.62v-304.17c0-7.51,6.11-13.62,13.62-13.62h725.33M1586.77,258.33h-725.33c-8.3,0-15.02,6.72-15.02,15.02v304.17c0,8.3,6.72,15.02,15.02,15.02h725.33c8.3,0,15.02-6.72,15.02-15.02v-304.17c0-8.3-6.72-15.02-15.02-15.02h0Z"/>
  <line class="cls-9" x1="846.42" y1="182.84" x2="1609.51" y2="182.84"/>
  <rect class="cls-11" x="875.75" y="280.29" width="386.87" height="50" rx="7.5" ry="7.5"/>
  <text class="cls-1" transform="translate(890.22 312.74)"><tspan x="0" y="0">Inferlet</tspan></text>
  <rect class="cls-17" x="875.75" y="388.89" width="702.36" height="50" rx="7.5" ry="7.5"/>
  <text class="cls-3" transform="translate(1131.13 420.73)"><tspan x="0" y="0">Cont</tspan><tspan class="cls-19" x="56.34" y="0">r</tspan><tspan class="cls-15" x="64.53" y="0">ol layer</tspan></text>
  <rect class="cls-17" x="874.9" y="500.01" width="170.39" height="70.63" rx="7.5" ry="7.5"/>
  <text class="cls-6" transform="translate(884.02 527.12) scale(1.02 1)"><tspan x="0" y="0">alloc_kvpage</tspan><tspan x="32.24" y="30.73">handler</tspan></text>
  <rect class="cls-17" x="1062.27" y="500.61" width="136.65" height="70.03" rx="7.5" ry="7.5"/>
  <rect class="cls-17" x="1436.55" y="494.23" width="141.56" height="70" rx="7.5" ry="7.5"/>
  <g>
    <path d="M1086.63,518.02v-1.95h2.26v-2c0-1.09.32-1.92.95-2.48s1.56-.85,2.77-.85c.21,0,.45.02.71.05.27.03.51.09.71.16v1.92c-.19-.07-.4-.12-.62-.14-.23-.03-.43-.04-.62-.04-.54,0-.95.1-1.25.31s-.44.61-.44,1.2v1.87h2.6v1.95h-2.6v11.49h-2.21v-11.49h-2.26Z"/>
    <path d="M1095.36,520.04c.28-.86.69-1.6,1.25-2.24.55-.63,1.24-1.13,2.05-1.5.81-.36,1.75-.55,2.81-.55s2.02.18,2.82.55,1.49.86,2.04,1.5.97,1.38,1.25,2.24c.28.86.42,1.78.42,2.77s-.14,1.91-.42,2.76c-.28.85-.69,1.59-1.25,2.22s-1.24,1.13-2.04,1.48-1.75.53-2.82.53-1.99-.18-2.81-.53c-.82-.36-1.5-.85-2.05-1.48-.56-.63-.97-1.37-1.25-2.22-.28-.85-.42-1.77-.42-2.76s.14-1.91.42-2.77ZM1097.61,524.98c.22.63.52,1.16.9,1.59s.83.75,1.34.98c.51.22,1.05.34,1.62.34s1.11-.11,1.62-.34c.51-.23.96-.55,1.34-.98.38-.42.68-.95.9-1.59s.33-1.36.33-2.17-.11-1.54-.33-2.17-.52-1.17-.9-1.6c-.38-.43-.83-.76-1.34-.99-.51-.23-1.05-.34-1.62-.34s-1.11.11-1.62.34c-.51.23-.96.55-1.34.99-.38.43-.68.97-.9,1.6-.22.63-.33,1.36-.33,2.17s.11,1.54.33,2.17Z"/>
    <path d="M1112.6,516.07v2.83h.05c.54-1.09,1.2-1.9,1.98-2.42.78-.52,1.77-.76,2.96-.73v2.34c-.88,0-1.64.12-2.26.36s-1.13.6-1.51,1.07c-.38.47-.66,1.04-.83,1.7-.17.67-.26,1.43-.26,2.3v5.98h-2.21v-13.44h2.08Z"/>
    <path d="M1130.23,529.52l-2.73-10.69h-.05l-2.7,10.69h-2.39l-4.32-13.44h2.44l3.04,11h.05l2.7-11h2.42l2.81,11h.05l3.02-11h2.29l-4.29,13.44h-2.34Z"/>
    <path d="M1150.87,529.46c-.38.22-.91.34-1.59.34-.57,0-1.03-.16-1.36-.48-.34-.32-.51-.84-.51-1.57-.61.73-1.31,1.25-2.12,1.57-.81.32-1.68.48-2.61.48-.61,0-1.18-.07-1.73-.21-.55-.14-1.02-.36-1.42-.65-.4-.29-.71-.68-.95-1.16-.23-.48-.35-1.05-.35-1.73,0-.76.13-1.39.39-1.87.26-.49.6-.88,1.03-1.18.42-.3.91-.53,1.46-.69s1.11-.29,1.68-.39c.61-.12,1.18-.21,1.73-.27.55-.06,1.03-.15,1.44-.26.42-.11.74-.28.99-.49s.36-.53.36-.95c0-.48-.09-.88-.27-1.17-.18-.29-.42-.52-.7-.68-.29-.16-.61-.26-.96-.31-.36-.05-.71-.08-1.05-.08-.94,0-1.72.18-2.34.53-.62.36-.96,1.03-1.01,2.02h-2.21c.03-.83.21-1.53.52-2.11.31-.57.73-1.04,1.25-1.39.52-.36,1.11-.61,1.78-.77.67-.16,1.38-.23,2.14-.23.61,0,1.21.04,1.81.13.6.09,1.14.26,1.62.53.48.27.88.64,1.17,1.13.29.48.44,1.12.44,1.89v6.9c0,.52.03.9.09,1.14.06.24.26.36.61.36.19,0,.42-.03.68-.1v1.72ZM1147.28,522.57c-.28.21-.64.36-1.09.45-.45.1-.92.17-1.42.23s-.99.13-1.5.21c-.5.08-.95.2-1.35.38-.4.17-.72.42-.98.74-.25.32-.38.75-.38,1.31,0,.36.07.67.22.92.15.25.34.45.57.61.23.16.51.27.82.34.31.07.64.1.99.1.73,0,1.35-.1,1.87-.3.52-.2.94-.45,1.27-.75s.57-.63.73-.98c.16-.35.23-.69.23-1v-2.25Z"/>
    <path d="M1154.93,516.07v2.83h.05c.54-1.09,1.2-1.9,1.98-2.42.78-.52,1.77-.76,2.96-.73v2.34c-.88,0-1.64.12-2.26.36s-1.13.6-1.51,1.07c-.38.47-.66,1.04-.83,1.7-.17.67-.26,1.43-.26,2.3v5.98h-2.21v-13.44h2.08Z"/>
    <path d="M1170.92,529.52v-1.82h-.05c-.36.75-.94,1.28-1.72,1.61-.78.33-1.64.49-2.57.49-1.04,0-1.95-.19-2.72-.57-.77-.38-1.41-.89-1.92-1.53-.51-.64-.9-1.39-1.16-2.24-.26-.85-.39-1.75-.39-2.7s.13-1.85.38-2.7.63-1.59,1.14-2.22c.51-.63,1.15-1.14,1.92-1.51.77-.37,1.67-.56,2.69-.56.35,0,.72.04,1.12.1.4.07.8.19,1.2.35s.78.38,1.13.65c.36.27.65.6.9,1h.05v-6.92h2.21v18.56h-2.21ZM1162.97,524.75c.17.6.42,1.13.75,1.6.34.47.77.84,1.3,1.12.53.28,1.15.42,1.86.42s1.38-.15,1.9-.44.94-.68,1.27-1.16c.33-.48.57-1.02.71-1.62.15-.61.22-1.22.22-1.85,0-.66-.08-1.3-.23-1.91-.16-.62-.4-1.16-.74-1.62s-.78-.84-1.31-1.13-1.19-.43-1.95-.43-1.38.15-1.9.44c-.52.29-.94.69-1.25,1.17-.31.49-.54,1.04-.68,1.66s-.21,1.27-.21,1.92c0,.62.08,1.23.25,1.83Z"/>
    <path d="M1091.12,542.15v7.1h.05c.17-.42.42-.77.73-1.05.31-.29.66-.52,1.05-.7.39-.18.8-.32,1.22-.4.42-.09.84-.13,1.23-.13.88,0,1.62.12,2.21.36.59.24,1.07.58,1.43,1.01.36.43.62.95.77,1.55s.22,1.26.22,1.99v8.84h-2.21v-9.1c0-.83-.24-1.49-.73-1.98-.49-.49-1.15-.73-2-.73-.68,0-1.26.1-1.75.31-.49.21-.91.5-1.24.88-.33.38-.58.83-.74,1.34-.17.51-.25,1.07-.25,1.68v7.59h-2.21v-18.56h2.21Z"/>
    <path d="M1115.28,560.66c-.38.22-.91.34-1.59.34-.57,0-1.03-.16-1.37-.48-.34-.32-.51-.84-.51-1.57-.61.73-1.31,1.25-2.12,1.57-.81.32-1.68.48-2.61.48-.61,0-1.18-.07-1.73-.21s-1.02-.36-1.42-.65c-.4-.29-.71-.68-.95-1.16-.23-.48-.35-1.05-.35-1.73,0-.76.13-1.39.39-1.87s.6-.88,1.03-1.18c.42-.3.91-.53,1.46-.69s1.1-.29,1.68-.39c.61-.12,1.18-.21,1.73-.27.55-.06,1.03-.15,1.44-.26.42-.11.75-.28.99-.49.24-.22.36-.53.36-.95,0-.48-.09-.88-.27-1.17-.18-.29-.42-.52-.7-.68s-.61-.26-.96-.31c-.36-.05-.71-.08-1.05-.08-.94,0-1.72.18-2.34.53-.62.36-.96,1.03-1.01,2.02h-2.21c.04-.83.21-1.53.52-2.11.31-.57.73-1.04,1.25-1.39.52-.36,1.11-.61,1.78-.77.67-.16,1.38-.23,2.15-.23.61,0,1.21.04,1.81.13.6.09,1.14.26,1.62.53.49.27.88.64,1.17,1.13s.44,1.12.44,1.89v6.9c0,.52.03.9.09,1.14s.26.36.61.36c.19,0,.42-.03.68-.1v1.72ZM1111.69,553.77c-.28.21-.64.36-1.09.45-.45.1-.92.17-1.42.23s-.99.13-1.5.21c-.5.08-.95.2-1.35.38-.4.17-.72.42-.97.74-.25.32-.38.75-.38,1.31,0,.36.07.67.22.92s.34.45.57.61.51.27.82.34c.31.07.64.1.99.1.73,0,1.35-.1,1.87-.3.52-.2.94-.45,1.27-.75.33-.3.57-.63.73-.98.16-.35.23-.69.23-1v-2.25Z"/>
    <path d="M1119.41,547.27v2.13h.05c.92-1.63,2.37-2.44,4.37-2.44.88,0,1.62.12,2.21.36.59.24,1.07.58,1.43,1.01.36.43.62.95.77,1.55s.22,1.26.22,1.99v8.84h-2.21v-9.1c0-.83-.24-1.49-.73-1.98s-1.15-.73-2-.73c-.68,0-1.26.1-1.75.31s-.91.5-1.24.88c-.33.38-.58.83-.74,1.34-.17.51-.25,1.07-.25,1.68v7.59h-2.21v-13.44h2.08Z"/>
    <path d="M1141.59,560.72v-1.82h-.05c-.36.75-.94,1.28-1.72,1.61-.78.33-1.64.49-2.57.49-1.04,0-1.95-.19-2.72-.57-.77-.38-1.41-.89-1.92-1.53-.51-.64-.9-1.39-1.16-2.24-.26-.85-.39-1.75-.39-2.7s.13-1.85.38-2.7.63-1.59,1.14-2.22c.51-.63,1.15-1.14,1.92-1.51.77-.37,1.67-.56,2.69-.56.35,0,.72.04,1.12.1.4.07.8.19,1.2.35s.78.38,1.13.65c.36.27.65.6.9,1h.05v-6.92h2.21v18.56h-2.21ZM1133.65,555.95c.17.6.42,1.13.75,1.6.34.47.77.84,1.3,1.12.53.28,1.15.42,1.86.42s1.38-.15,1.9-.44c.52-.29.94-.68,1.27-1.16.33-.48.57-1.02.72-1.62.15-.61.22-1.22.22-1.85,0-.66-.08-1.3-.23-1.91s-.4-1.16-.74-1.62c-.34-.47-.78-.84-1.31-1.13s-1.19-.43-1.95-.43-1.38.15-1.9.44c-.52.29-.94.69-1.25,1.17-.31.49-.54,1.04-.68,1.66s-.21,1.27-.21,1.92c0,.62.08,1.23.25,1.83Z"/>
    <path d="M1149.55,542.15v18.56h-2.21v-18.56h2.21Z"/>
    <path d="M1162.49,559.86c-1.01.76-2.27,1.14-3.8,1.14-1.08,0-2.01-.17-2.79-.52-.79-.35-1.45-.83-1.99-1.46s-.94-1.37-1.21-2.24-.42-1.81-.46-2.83c0-1.02.16-1.96.47-2.81.31-.85.75-1.59,1.31-2.21s1.23-1.11,2-1.46c.77-.35,1.62-.52,2.54-.52,1.2,0,2.19.25,2.98.74s1.42,1.12,1.9,1.88c.48.76.81,1.59.99,2.5.18.9.25,1.76.22,2.57h-10.06c-.02.59.05,1.15.21,1.68.16.53.41,1,.75,1.4s.79.73,1.33.97c.54.24,1.17.36,1.9.36.94,0,1.7-.22,2.3-.65.6-.43.99-1.09,1.18-1.98h2.18c-.29,1.51-.95,2.64-1.95,3.41ZM1161.96,551.23c-.2-.47-.47-.87-.81-1.21s-.74-.61-1.2-.81-.97-.3-1.52-.3-1.09.1-1.55.3c-.46.2-.85.47-1.18.82s-.59.75-.78,1.21c-.19.46-.3.95-.34,1.47h7.72c-.04-.52-.15-1.01-.35-1.48Z"/>
    <path d="M1168.94,547.27v2.83h.05c.54-1.09,1.2-1.9,1.98-2.42.78-.52,1.77-.76,2.96-.73v2.34c-.88,0-1.64.12-2.26.36-.62.24-1.13.6-1.51,1.07-.38.47-.66,1.04-.83,1.7-.17.67-.26,1.43-.26,2.3v5.98h-2.21v-13.44h2.08Z"/>
  </g>
  <rect class="cls-11" x="1287.32" y="280.29" width="130" height="50" rx="7.5" ry="7.5"/>
  <text class="cls-1" transform="translate(1312.61 313.03)"><tspan x="0" y="0">Inferlet</tspan></text>
  <rect class="cls-11" x="1448.59" y="280.19" width="130" height="50" rx="7.5" ry="7.5"/>
  <text class="cls-1" transform="translate(1477.83 312.26)"><tspan x="0" y="0">Inferlet</tspan></text>
  <text class="cls-3" transform="translate(961.69 365.27)"><tspan x="0" y="0">St</tspan><tspan class="cls-18" x="25.04" y="0">r</tspan><tspan x="33.23" y="0">eam of API calls</tspan></text>
  <text class="cls-3" transform="translate(1143.18 471.61)"><tspan x="0" y="0">Batched API calls</tspan></text>
  <text class="cls-7" transform="translate(1013.47 312.74)"><tspan x="0" y="0">Custom generation logic</tspan></text>
  <text class="cls-3" transform="translate(1461.1 524.79)"><tspan x="0" y="0">get_dist</tspan><tspan x="2.89" y="31.2">handler</tspan></text>
  <text class="cls-14" transform="translate(1299.71 529.52)"><tspan x="0" y="0">. . .</tspan></text>
  <g>
    <line class="cls-8" x1="1509.81" y1="347.56" x2="1509.81" y2="365.64"/>
    <polygon class="cls-11" points="1509.81 339.09 1504.93 351.03 1509.81 348.19 1514.69 351.03 1509.81 339.09"/>
    <path class="cls-11" d="M1509.81,372.89c-1.26-3.41-3.42-7.64-5.71-10.26l5.71,2.06,5.71-2.06c-2.29,2.62-4.44,6.85-5.71,10.26Z"/>
  </g>
  <g>
    <line class="cls-8" x1="1354.89" y1="347.66" x2="1354.89" y2="365.75"/>
    <polygon class="cls-11" points="1354.89 339.19 1350.01 351.13 1354.89 348.3 1359.76 351.13 1354.89 339.19"/>
    <path class="cls-11" d="M1354.89,372.99c-1.26-3.41-3.42-7.64-5.71-10.26l5.71,2.06,5.71-2.06c-2.29,2.62-4.44,6.85-5.71,10.26Z"/>
  </g>
  <g>
    <line class="cls-8" x1="939.9" y1="347.66" x2="939.9" y2="365.75"/>
    <polygon class="cls-11" points="939.9 339.19 935.03 351.13 939.9 348.3 944.78 351.13 939.9 339.19"/>
    <path class="cls-11" d="M939.9,372.99c-1.26-3.41-3.42-7.64-5.71-10.26l5.71,2.06,5.71-2.06c-2.29,2.62-4.44,6.85-5.71,10.26Z"/>
  </g>
  <g>
    <line class="cls-8" x1="942.84" y1="451.48" x2="942.84" y2="469.76"/>
    <polygon class="cls-11" points="942.84 443.01 937.97 454.95 942.84 452.11 947.72 454.95 942.84 443.01"/>
    <path class="cls-11" d="M942.84,477.01c-1.26-3.41-3.42-7.64-5.71-10.26l5.71,2.06,5.71-2.06c-2.29,2.62-4.44,6.85-5.71,10.26Z"/>
  </g>
  <g>
    <line class="cls-8" x1="1122.08" y1="458.19" x2="1122.08" y2="476.48"/>
    <polygon class="cls-11" points="1122.08 449.72 1117.2 461.66 1122.08 458.83 1126.96 461.66 1122.08 449.72"/>
    <path class="cls-11" d="M1122.08,483.72c-1.26-3.41-3.42-7.64-5.71-10.26l5.71,2.06,5.71-2.06c-2.29,2.62-4.44,6.85-5.71,10.26Z"/>
  </g>
  <g>
    <line class="cls-8" x1="1490.49" y1="451.48" x2="1490.49" y2="469.76"/>
    <polygon class="cls-11" points="1490.49 443.01 1485.61 454.94 1490.49 452.11 1495.37 454.94 1490.49 443.01"/>
    <path class="cls-11" d="M1490.49,477.01c-1.26-3.41-3.42-7.64-5.71-10.26l5.71,2.06,5.71-2.06c-2.29,2.62-4.44,6.85-5.71,10.26Z"/>
  </g>
  <text class="cls-4" transform="translate(1212.58 561.39)"><tspan x="0" y="0">Fine-grained APIs</tspan></text>
  <rect class="cls-13" x="1075.76" y="79.03" width="139.72" height="50.94" rx="7.5" ry="7.5"/>
  <text class="cls-3" transform="translate(1093.82 113.11)"><tspan x="0" y="0">LLM app</tspan></text>
  <text class="cls-3" transform="translate(1284.65 113.11)"><tspan x="0" y="0">LLM app</tspan></text>
  <text class="cls-3" transform="translate(1475.47 113.11)"><tspan x="0" y="0">LLM app</tspan></text>
  <text class="cls-3" transform="translate(5.01 150.63)"><tspan x="0" y="0">Users</tspan></text>
  <g>
    <line class="cls-10" x1="1143.18" y1="131.44" x2="1143.18" y2="235.73"/>
    <path class="cls-12" d="M1143.18,244.18c-1.48-3.98-3.99-8.91-6.66-11.97l6.66,2.41,6.66-2.41c-2.67,3.06-5.18,7.99-6.66,11.97Z"/>
  </g>
  <g>
    <line class="cls-10" x1="1335.57" y1="130.67" x2="1335.57" y2="234.95"/>
    <path class="cls-12" d="M1335.57,243.4c-1.48-3.98-3.99-8.91-6.66-11.97l6.66,2.41,6.66-2.41c-2.67,3.06-5.18,7.99-6.66,11.97Z"/>
  </g>
  <g>
    <line class="cls-10" x1="1525.52" y1="129.97" x2="1525.52" y2="234.25"/>
    <path class="cls-12" d="M1525.52,242.7c-1.48-3.98-3.99-8.91-6.66-11.97l6.66,2.41,6.66-2.41c-2.67,3.06-5.18,7.99-6.66,11.97Z"/>
  </g>
  <g>
    <line class="cls-10" x1="460.17" y1="147.88" x2="460.17" y2="249.72"/>
    <polygon class="cls-12" points="460.17 138.98 455.04 151.52 460.17 148.54 465.29 151.52 460.17 138.98"/>
    <path class="cls-12" d="M460.17,257.32c-1.33-3.58-3.59-8.02-5.99-10.77l5.99,2.17,5.99-2.17c-2.4,2.75-4.66,7.19-5.99,10.77Z"/>
  </g>
  <g>
    <line class="cls-10" x1="656.64" y1="147.88" x2="656.64" y2="249.72"/>
    <polygon class="cls-12" points="656.64 138.98 651.52 151.52 656.64 148.54 661.76 151.52 656.64 138.98"/>
    <path class="cls-12" d="M656.64,257.32c-1.33-3.58-3.59-8.02-5.99-10.77l5.99,2.17,5.99-2.17c-2.4,2.75-4.66,7.19-5.99,10.77Z"/>
  </g>
  <g>
    <line class="cls-10" x1="276.88" y1="147.88" x2="276.88" y2="249.72"/>
    <polygon class="cls-12" points="276.88 138.98 271.76 151.52 276.88 148.54 282 151.52 276.88 138.98"/>
    <path class="cls-12" d="M276.88,257.32c-1.33-3.58-3.59-8.02-5.99-10.77l5.99,2.17,5.99-2.17c-2.4,2.75-4.66,7.19-5.99,10.77Z"/>
  </g>
  <text class="cls-3" transform="translate(845.94 224.63)"><tspan x="0" y="0">LLM serving system</tspan></text>
  <text class="cls-3" transform="translate(842.01 150.63)"><tspan x="0" y="0">Users</tspan></text>
  <text class="cls-5" transform="translate(224.39 433.25)"><tspan x="0" y="0">Global auto</tspan><tspan class="cls-19" x="134.34" y="0">r</tspan><tspan x="142.53" y="0">eg</tspan><tspan class="cls-18" x="171.41" y="0">r</tspan><tspan class="cls-16" x="179.6" y="0">essive loop</tspan></text>
  <text class="cls-2" transform="translate(258.52 36.35)"><tspan x="0" y="0">Existing LLM serving</tspan></text>
  <text class="cls-2" transform="translate(1062.27 36.35)"><tspan x="0" y="0">P</tspan><tspan class="cls-18" x="17.34" y="0">r</tspan><tspan x="26.99" y="0">ogrammable LLM serving</tspan></text>
  <rect class="cls-13" x="393.58" y="79.03" width="139.72" height="50.94" rx="7.5" ry="7.5"/>
  <rect class="cls-13" x="583.53" y="79.03" width="139.72" height="50.94" rx="7.5" ry="7.5"/>
  <rect class="cls-13" x="203.63" y="79.03" width="139.72" height="50.94" rx="7.5" ry="7.5"/>
  <text class="cls-3" transform="translate(221.69 113.11)"><tspan x="0" y="0">LLM app</tspan></text>
  <text class="cls-3" transform="translate(412.51 113.11)"><tspan x="0" y="0">LLM app</tspan></text>
  <text class="cls-3" transform="translate(603.33 113.11)"><tspan x="0" y="0">LLM app</tspan></text>
</svg>