<?xml version="1.0" encoding="UTF-8"?>
<svg id="Layer_1" data-name="Layer 1" xmlns="http://www.w3.org/2000/svg" viewBox="0 0 174.49 67.89">
  <defs>
    <style>
      .cls-1 {
        fill: none;
        stroke: #fff;
        stroke-miterlimit: 10;
        stroke-width: 8px;
      }

      .cls-2 {
        fill: #fff;
      }
    </style>
  </defs>
  <g>
    <path class="cls-2" d="M80.04,65.9V16.5h5.9l1.44,4.03h.36c1.01-1.3,4.97-4.9,10.87-4.9,9,0,16.78,7.99,16.78,19.08s-7.78,19.08-16.78,19.08c-5.54,0-9.5-3.38-10.3-4.68h-.36v16.78h-7.92ZM107.54,34.72c0-6.98-4.54-11.74-9.79-11.74s-9.79,4.75-9.79,11.74,4.54,11.74,9.79,11.74,9.79-4.75,9.79-11.74Z"/>
    <path class="cls-2" d="M121.8,6.78c0-2.66,2.09-4.68,4.68-4.68s4.61,2.02,4.61,4.68-2.02,4.61-4.61,4.61-4.68-2.02-4.68-4.61ZM122.52,52.94V16.5h7.92v36.44h-7.92Z"/>
    <path class="cls-2" d="M172.42,37.81h-27c1.01,5.54,4.9,8.86,10.08,8.86,4.1,0,6.55-1.94,7.85-3.82h8.21c-2.02,5.26-7.99,10.95-15.99,10.95-10.08,0-18.07-8.28-18.07-19.08s8.21-19.08,18-19.08,17.35,7.92,17.35,18.29c0,1.73-.22,3.1-.43,3.89ZM145.41,31.84h19.73c-.86-5.4-4.75-9.07-9.65-9.07s-9.07,3.53-10.08,9.07Z"/>
  </g>
  <path class="cls-1" d="M52.96,11.53l-43.52,6.4c-3.85.57-5.64,5.08-3.22,8.13l27.3,34.49c2.41,3.05,7.22,2.34,8.65-1.27l16.21-40.89c1.43-3.61-1.58-7.42-5.43-6.86Z"/>
</svg>