<?xml version="1.0" encoding="UTF-8"?>
<svg id="Layer_1" data-name="Layer 1" xmlns="http://www.w3.org/2000/svg" viewBox="0 0 1622.44 549.84">
  <defs>
    <style>
      .cls-1, .cls-2, .cls-3 {
        fill: #fff;
      }

      .cls-1, .cls-4 {
        font-family: HelveticaNeue, 'Helvetica Neue';
      }

      .cls-1, .cls-4, .cls-5, .cls-6, .cls-7 {
        font-size: 26px;
      }

      .cls-8 {
        fill: #f15a24;
      }

      .cls-2 {
        stroke: #000;
      }

      .cls-2, .cls-9, .cls-3, .cls-10 {
        stroke-miterlimit: 10;
        stroke-width: 1.4px;
      }

      .cls-2, .cls-9, .cls-10 {
        stroke-linecap: square;
      }

      .cls-11, .cls-5, .cls-6 {
        fill: gray;
      }

      .cls-5 {
        font-family: Helvetica-Oblique, Helvetica;
      }

      .cls-5, .cls-12, .cls-7 {
        font-style: oblique;
      }

      .cls-9 {
        stroke-dasharray: 4;
      }

      .cls-9, .cls-3, .cls-10 {
        stroke: gray;
      }

      .cls-9, .cls-10 {
        fill: none;
      }

      .cls-13 {
        letter-spacing: 0em;
      }

      .cls-14 {
        letter-spacing: 0em;
      }

      .cls-15 {
        fill: #f2f2f2;
      }

      .cls-6 {
        font-family: HelveticaNeue-LightItalic, 'Helvetica Neue';
        font-style: italic;
      }

      .cls-6, .cls-12, .cls-7 {
        font-weight: 300;
      }

      .cls-16 {
        letter-spacing: -.02em;
      }

      .cls-17 {
        letter-spacing: -.02em;
      }

      .cls-12 {
        font-size: 23.65px;
      }

      .cls-12, .cls-7 {
        font-family: Helvetica-LightOblique, Helvetica;
      }

      .cls-18 {
        letter-spacing: .02em;
      }
    </style>
  </defs>
  <text class="cls-4" transform="translate(13.51 37.43)"><tspan x="0" y="0">Application layer</tspan></text>
  <text class="cls-4" transform="translate(16.4 231.56)"><tspan x="0" y="0">Cont</tspan><tspan class="cls-17" x="56.34" y="0">r</tspan><tspan class="cls-13" x="64.53" y="0">ol layer</tspan></text>
  <text class="cls-4" transform="translate(19.63 443.26)"><tspan x="0" y="0">Infe</tspan><tspan class="cls-16" x="42.85" y="0">r</tspan><tspan class="cls-14" x="51.04" y="0">ence layer</tspan></text>
  <rect class="cls-8" x="348.28" y="65.5" width="140" height="50" rx="7.5" ry="7.5"/>
  <text class="cls-1" transform="translate(378.57 98.23)"><tspan x="0" y="0">Inferlet</tspan></text>
  <rect class="cls-8" x="540.88" y="63.97" width="140" height="50" rx="7.5" ry="7.5"/>
  <text class="cls-1" transform="translate(571.17 96.7)"><tspan x="0" y="0">Inferlet</tspan></text>
  <rect class="cls-8" x="733.48" y="63.97" width="140" height="50" rx="7.5" ry="7.5"/>
  <text class="cls-1" transform="translate(763.77 96.7)"><tspan x="0" y="0">Inferlet</tspan></text>
  <rect class="cls-15" x="958.23" y="65.5" width="365.97" height="50" rx="7.5" ry="7.5"/>
  <text class="cls-4" transform="translate(991.72 100.68)"><tspan x="0" y="0">Inferlet Lifecycle Manager</tspan></text>
  <rect class="cls-15" x="630.12" y="232.95" width="324.87" height="102.73" rx="7.5" ry="7.5"/>
  <text class="cls-4" transform="translate(735.75 291.14)"><tspan x="0" y="0">Cont</tspan><tspan class="cls-17" x="56.34" y="0">r</tspan><tspan class="cls-13" x="64.53" y="0">oller</tspan></text>
  <rect class="cls-15" x="1062.27" y="284.79" width="240" height="50" rx="7.5" ry="7.5"/>
  <text class="cls-4" transform="translate(1088.34 319.56)"><tspan x="0" y="0">Batch scheduler</tspan></text>
  <rect class="cls-15" x="347.97" y="285.03" width="240" height="50" rx="7.5" ry="7.5"/>
  <text class="cls-4" transform="translate(370.9 319.81)"><tspan x="0" y="0">Event dispatcher</tspan></text>
  <rect class="cls-15" x="350.4" y="470.64" width="200" height="50" rx="7.5" ry="7.5"/>
  <text class="cls-4" transform="translate(383.92 505.41)"><tspan x="0" y="0">API handler</tspan></text>
  <rect class="cls-15" x="601.3" y="470.64" width="200" height="50" rx="7.5" ry="7.5"/>
  <text class="cls-4" transform="translate(634.82 505.41)"><tspan x="0" y="0">API handler</tspan></text>
  <rect class="cls-15" x="852.2" y="470.64" width="200" height="50" rx="7.5" ry="7.5"/>
  <text class="cls-4" transform="translate(885.72 505.41)"><tspan x="0" y="0">API handler</tspan></text>
  <rect class="cls-15" x="1103.1" y="470.64" width="200" height="50" rx="7.5" ry="7.5"/>
  <text class="cls-4" transform="translate(1136.62 505.41)"><tspan x="0" y="0">API handler</tspan></text>
  <line class="cls-9" x1="19.27" y1="187.37" x2="1597.29" y2="187.37"/>
  <line class="cls-9" x1="22.71" y1="400.48" x2="1600.73" y2="400.48"/>
  <rect class="cls-2" x="1067.63" y="217.42" width="21.44" height="21.44" transform="translate(2156.7 456.28) rotate(-180)"/>
  <rect class="cls-2" x="1067.63" y="246.16" width="21.44" height="21.44" transform="translate(2156.7 513.76) rotate(-180)"/>
  <rect class="cls-2" x="1096.24" y="217.25" width="21.44" height="21.44" transform="translate(2213.93 455.95) rotate(-180)"/>
  <rect class="cls-2" x="1096.24" y="245.99" width="21.44" height="21.44" transform="translate(2213.93 513.42) rotate(-180)"/>
  <rect class="cls-2" x="1161.37" y="216.67" width="21.44" height="21.44" transform="translate(2344.18 454.79) rotate(-180)"/>
  <rect class="cls-2" x="1161.37" y="245.41" width="21.44" height="21.44" transform="translate(2344.18 512.27) rotate(-180)"/>
  <text class="cls-7" transform="translate(1201.74 228.14)"><tspan x="0" y="0">command</tspan><tspan x="0" y="31.2">queues</tspan></text>
  <text class="cls-12" transform="translate(1129.06 242.64) scale(.76 1)"><tspan x="0" y="0">...</tspan></text>
  <g>
    <line class="cls-10" x1="954.52" y1="88.7" x2="895.27" y2="88.7"/>
    <path class="cls-11" d="M886.82,88.7c3.98-1.48,8.91-3.99,11.97-6.66l-2.41,6.66,2.41,6.66c-3.06-2.67-7.99-5.18-11.97-6.66Z"/>
  </g>
  <circle class="cls-3" cx="895.73" cy="40.47" r="18.07"/>
  <text class="cls-5" transform="translate(885.35 49.52)"><tspan x="0" y="0">1</tspan></text>
  <g>
    <line class="cls-10" x1="801.3" y1="113.97" x2="801.3" y2="217.78"/>
    <path class="cls-11" d="M801.3,226.23c-1.48-3.98-3.99-8.91-6.66-11.97l6.66,2.41,6.66-2.41c-2.67,3.06-5.18,7.99-6.66,11.97Z"/>
  </g>
  <circle class="cls-3" cx="831.63" cy="142.97" r="18.07"/>
  <text class="cls-5" transform="translate(821.25 152.02)"><tspan x="0" y="0">2</tspan></text>
  <text class="cls-6" transform="translate(924.7 49.52)"><tspan x="0" y="0">spawn</tspan></text>
  <text class="cls-6" transform="translate(861.11 152.58)"><tspan x="0" y="0">API call</tspan></text>
  <g>
    <path class="cls-10" d="M1042.32,243.22c-45.9,2.89-89.44,21.1-89.44,21.1"/>
    <polygon class="cls-11" points="1052.2 242.84 1038.04 237.77 1041.59 243.31 1038.54 249.14 1052.2 242.84"/>
  </g>
  <circle class="cls-3" cx="919.27" cy="202.72" r="18.07"/>
  <text class="cls-5" transform="translate(908.89 211.77)"><tspan x="0" y="0">3</tspan></text>
  <text class="cls-6" transform="translate(948.75 212.34)"><tspan x="0" y="0">schedule</tspan></text>
  <g>
    <path class="cls-10" d="M1185.69,336.88c-22.77,22.2-63.67,57.42-126.49,90.82-25.64,13.63-49.79,24.22-70.7,32.37"/>
    <polygon class="cls-11" points="979.27 463.59 990.18 453.23 989.17 459.74 994.31 463.84 979.27 463.59"/>
  </g>
  <circle class="cls-3" cx="1125.2" cy="418.3" r="18.07"/>
  <text class="cls-5" transform="translate(1114.82 427.35)"><tspan x="0" y="0">4</tspan></text>
  <text class="cls-6" transform="translate(1154.68 427.91)"><tspan x="0" y="0">batched API calls</tspan></text>
  <g>
    <path class="cls-10" d="M689.23,469.97c-51.93-7.31-129.88-24.77-181.38-70.89-20.56-18.42-32.87-37.79-40.29-55.58"/>
    <polygon class="cls-11" points="464.07 334.25 474.41 345.18 467.91 344.15 463.8 349.29 464.07 334.25"/>
  </g>
  <circle class="cls-3" cx="644.11" cy="418.3" r="18.07"/>
  <text class="cls-5" transform="translate(633.73 427.35)"><tspan x="0" y="0">4</tspan></text>
  <text class="cls-6" transform="translate(673.59 427.91)"><tspan class="cls-16" x="0" y="0">r</tspan><tspan x="7.72" y="0">etu</tspan><tspan class="cls-18" x="42.87" y="0">r</tspan><tspan x="51.53" y="0">n </tspan><tspan class="cls-16" x="72.72" y="0">r</tspan><tspan x="80.44" y="0">esults</tspan></text>
  <g>
    <path class="cls-10" d="M459.48,285.92c33.01-47.62,90.43-116.68,170.22-149.42,33.12-13.59,63.34-18.15,88.97-18.4"/>
    <polygon class="cls-11" points="728.56 118.21 714.58 123.79 717.93 118.12 714.68 112.41 728.56 118.21"/>
  </g>
  <circle class="cls-3" cx="520.92" cy="252.69" r="18.07"/>
  <text class="cls-5" transform="translate(510.54 261.73)"><tspan x="0" y="0">4</tspan></text>
  <text class="cls-6" transform="translate(550.4 262.3)"><tspan x="0" y="0">notify</tspan></text>
</svg>