<?xml version="1.0" encoding="utf-8" standalone="no"?>
<!DOCTYPE svg PUBLIC "-//W3C//DTD SVG 1.1//EN"
  "http://www.w3.org/Graphics/SVG/1.1/DTD/svg11.dtd">
<svg xmlns:xlink="http://www.w3.org/1999/xlink" width="741.450842pt" height="215.58825pt" viewBox="0 0 741.450842 215.58825" xmlns="http://www.w3.org/2000/svg" version="1.1">
 <metadata>
  <rdf:RDF xmlns:dc="http://purl.org/dc/elements/1.1/" xmlns:cc="http://creativecommons.org/ns#" xmlns:rdf="http://www.w3.org/1999/02/22-rdf-syntax-ns#">
   <cc:Work>
    <dc:type rdf:resource="http://purl.org/dc/dcmitype/StillImage"/>
    <dc:date>2025-10-06T01:54:21.257246</dc:date>
    <dc:format>image/svg+xml</dc:format>
    <dc:creator>
     <cc:Agent>
      <dc:title>Matplotlib v3.10.0, https://matplotlib.org/</dc:title>
     </cc:Agent>
    </dc:creator>
   </cc:Work>
  </rdf:RDF>
 </metadata>
 <defs>
  <style type="text/css">*{stroke-linejoin: round; stroke-linecap: butt}</style>
 </defs>
 <g id="figure_1">
  <g id="patch_1">
   <path d="M 0 215.58825 
L 741.450842 215.58825 
L 741.450842 0 
L 0 0 
z
" style="fill: #ffffff"/>
  </g>
  <g id="axes_1">
   <g id="patch_2">
    <path d="M 56.579063 101.990125 
L 726.179062 101.990125 
L 726.179062 26.390125 
L 56.579063 26.390125 
z
" style="fill: #ffffff; stroke: #000000; stroke-width: 0.5; stroke-linejoin: miter"/>
   </g>
   <g id="matplotlib.axis_1">
    <g id="xtick_1">
     <g id="line2d_1">
      <defs>
       <path id="m31dc9ac9e3" d="M 0 0 
L 0 2 
" style="stroke: #000000; stroke-width: 0.8"/>
      </defs>
      <g>
       <use xlink:href="#m31dc9ac9e3" x="93.45052" y="101.990125" style="stroke: #000000; stroke-width: 0.8"/>
      </g>
     </g>
    </g>
    <g id="xtick_2">
     <g id="line2d_2">
      <g>
       <use xlink:href="#m31dc9ac9e3" x="155.42563" y="101.990125" style="stroke: #000000; stroke-width: 0.8"/>
      </g>
     </g>
    </g>
    <g id="xtick_3">
     <g id="line2d_3">
      <g>
       <use xlink:href="#m31dc9ac9e3" x="217.400741" y="101.990125" style="stroke: #000000; stroke-width: 0.8"/>
      </g>
     </g>
    </g>
    <g id="xtick_4">
     <g id="line2d_4">
      <g>
       <use xlink:href="#m31dc9ac9e3" x="279.375851" y="101.990125" style="stroke: #000000; stroke-width: 0.8"/>
      </g>
     </g>
    </g>
    <g id="xtick_5">
     <g id="line2d_5">
      <g>
       <use xlink:href="#m31dc9ac9e3" x="341.350961" y="101.990125" style="stroke: #000000; stroke-width: 0.8"/>
      </g>
     </g>
    </g>
    <g id="xtick_6">
     <g id="line2d_6">
      <g>
       <use xlink:href="#m31dc9ac9e3" x="403.326072" y="101.990125" style="stroke: #000000; stroke-width: 0.8"/>
      </g>
     </g>
    </g>
    <g id="xtick_7">
     <g id="line2d_7">
      <g>
       <use xlink:href="#m31dc9ac9e3" x="465.301182" y="101.990125" style="stroke: #000000; stroke-width: 0.8"/>
      </g>
     </g>
    </g>
    <g id="xtick_8">
     <g id="line2d_8">
      <g>
       <use xlink:href="#m31dc9ac9e3" x="527.276293" y="101.990125" style="stroke: #000000; stroke-width: 0.8"/>
      </g>
     </g>
    </g>
    <g id="xtick_9">
     <g id="line2d_9">
      <g>
       <use xlink:href="#m31dc9ac9e3" x="589.251403" y="101.990125" style="stroke: #000000; stroke-width: 0.8"/>
      </g>
     </g>
    </g>
    <g id="xtick_10">
     <g id="line2d_10">
      <g>
       <use xlink:href="#m31dc9ac9e3" x="651.226513" y="101.990125" style="stroke: #000000; stroke-width: 0.8"/>
      </g>
     </g>
    </g>
    <g id="xtick_11">
     <g id="line2d_11">
      <g>
       <use xlink:href="#m31dc9ac9e3" x="713.201624" y="101.990125" style="stroke: #000000; stroke-width: 0.8"/>
      </g>
     </g>
    </g>
   </g>
   <g id="matplotlib.axis_2">
    <g id="ytick_1">
     <g id="line2d_12">
      <defs>
       <path id="mf0fd4f4283" d="M 0 0 
L -3 0 
" style="stroke: #000000; stroke-width: 0.8"/>
      </defs>
      <g>
       <use xlink:href="#mf0fd4f4283" x="56.579063" y="101.990125" style="stroke: #000000; stroke-width: 0.8"/>
      </g>
     </g>
     <g id="text_1">
      <!-- 0.0 -->
      <g transform="translate(32.075938 105.789344) scale(0.1 -0.1)">
       <defs>
        <path id="DejaVuSans-30" d="M 2034 4250 
Q 1547 4250 1301 3770 
Q 1056 3291 1056 2328 
Q 1056 1369 1301 889 
Q 1547 409 2034 409 
Q 2525 409 2770 889 
Q 3016 1369 3016 2328 
Q 3016 3291 2770 3770 
Q 2525 4250 2034 4250 
z
M 2034 4750 
Q 2819 4750 3233 4129 
Q 3647 3509 3647 2328 
Q 3647 1150 3233 529 
Q 2819 -91 2034 -91 
Q 1250 -91 836 529 
Q 422 1150 422 2328 
Q 422 3509 836 4129 
Q 1250 4750 2034 4750 
z
" transform="scale(0.015625)"/>
        <path id="DejaVuSans-2e" d="M 684 794 
L 1344 794 
L 1344 0 
L 684 0 
L 684 794 
z
" transform="scale(0.015625)"/>
       </defs>
       <use xlink:href="#DejaVuSans-30"/>
       <use xlink:href="#DejaVuSans-2e" transform="translate(63.623047 0)"/>
       <use xlink:href="#DejaVuSans-30" transform="translate(95.410156 0)"/>
      </g>
     </g>
    </g>
    <g id="ytick_2">
     <g id="line2d_13">
      <g>
       <use xlink:href="#mf0fd4f4283" x="56.579063" y="65.990125" style="stroke: #000000; stroke-width: 0.8"/>
      </g>
     </g>
     <g id="text_2">
      <!-- 0.5 -->
      <g transform="translate(32.075938 69.789344) scale(0.1 -0.1)">
       <defs>
        <path id="DejaVuSans-35" d="M 691 4666 
L 3169 4666 
L 3169 4134 
L 1269 4134 
L 1269 2991 
Q 1406 3038 1543 3061 
Q 1681 3084 1819 3084 
Q 2600 3084 3056 2656 
Q 3513 2228 3513 1497 
Q 3513 744 3044 326 
Q 2575 -91 1722 -91 
Q 1428 -91 1123 -41 
Q 819 9 494 109 
L 494 744 
Q 775 591 1075 516 
Q 1375 441 1709 441 
Q 2250 441 2565 725 
Q 2881 1009 2881 1497 
Q 2881 1984 2565 2268 
Q 2250 2553 1709 2553 
Q 1456 2553 1204 2497 
Q 953 2441 691 2322 
L 691 4666 
z
" transform="scale(0.015625)"/>
       </defs>
       <use xlink:href="#DejaVuSans-30"/>
       <use xlink:href="#DejaVuSans-2e" transform="translate(63.623047 0)"/>
       <use xlink:href="#DejaVuSans-35" transform="translate(95.410156 0)"/>
      </g>
     </g>
    </g>
    <g id="ytick_3">
     <g id="line2d_14">
      <g>
       <use xlink:href="#mf0fd4f4283" x="56.579063" y="29.990125" style="stroke: #000000; stroke-width: 0.8"/>
      </g>
     </g>
     <g id="text_3">
      <!-- 1.0 -->
      <g transform="translate(32.075938 33.789344) scale(0.1 -0.1)">
       <defs>
        <path id="DejaVuSans-31" d="M 794 531 
L 1825 531 
L 1825 4091 
L 703 3866 
L 703 4441 
L 1819 4666 
L 2450 4666 
L 2450 531 
L 3481 531 
L 3481 0 
L 794 0 
L 794 531 
z
" transform="scale(0.015625)"/>
       </defs>
       <use xlink:href="#DejaVuSans-31"/>
       <use xlink:href="#DejaVuSans-2e" transform="translate(63.623047 0)"/>
       <use xlink:href="#DejaVuSans-30" transform="translate(95.410156 0)"/>
      </g>
     </g>
    </g>
    <g id="text_4">
     <!-- (a) Latency -->
     <g transform="translate(14.798438 92.508875) rotate(-90) scale(0.1 -0.1)">
      <defs>
       <path id="DejaVuSans-28" d="M 1984 4856 
Q 1566 4138 1362 3434 
Q 1159 2731 1159 2009 
Q 1159 1288 1364 580 
Q 1569 -128 1984 -844 
L 1484 -844 
Q 1016 -109 783 600 
Q 550 1309 550 2009 
Q 550 2706 781 3412 
Q 1013 4119 1484 4856 
L 1984 4856 
z
" transform="scale(0.015625)"/>
       <path id="DejaVuSans-61" d="M 2194 1759 
Q 1497 1759 1228 1600 
Q 959 1441 959 1056 
Q 959 750 1161 570 
Q 1363 391 1709 391 
Q 2188 391 2477 730 
Q 2766 1069 2766 1631 
L 2766 1759 
L 2194 1759 
z
M 3341 1997 
L 3341 0 
L 2766 0 
L 2766 531 
Q 2569 213 2275 61 
Q 1981 -91 1556 -91 
Q 1019 -91 701 211 
Q 384 513 384 1019 
Q 384 1609 779 1909 
Q 1175 2209 1959 2209 
L 2766 2209 
L 2766 2266 
Q 2766 2663 2505 2880 
Q 2244 3097 1772 3097 
Q 1472 3097 1187 3025 
Q 903 2953 641 2809 
L 641 3341 
Q 956 3463 1253 3523 
Q 1550 3584 1831 3584 
Q 2591 3584 2966 3190 
Q 3341 2797 3341 1997 
z
" transform="scale(0.015625)"/>
       <path id="DejaVuSans-29" d="M 513 4856 
L 1013 4856 
Q 1481 4119 1714 3412 
Q 1947 2706 1947 2009 
Q 1947 1309 1714 600 
Q 1481 -109 1013 -844 
L 513 -844 
Q 928 -128 1133 580 
Q 1338 1288 1338 2009 
Q 1338 2731 1133 3434 
Q 928 4138 513 4856 
z
" transform="scale(0.015625)"/>
       <path id="DejaVuSans-20" transform="scale(0.015625)"/>
       <path id="DejaVuSans-4c" d="M 628 4666 
L 1259 4666 
L 1259 531 
L 3531 531 
L 3531 0 
L 628 0 
L 628 4666 
z
" transform="scale(0.015625)"/>
       <path id="DejaVuSans-74" d="M 1172 4494 
L 1172 3500 
L 2356 3500 
L 2356 3053 
L 1172 3053 
L 1172 1153 
Q 1172 725 1289 603 
Q 1406 481 1766 481 
L 2356 481 
L 2356 0 
L 1766 0 
Q 1100 0 847 248 
Q 594 497 594 1153 
L 594 3053 
L 172 3053 
L 172 3500 
L 594 3500 
L 594 4494 
L 1172 4494 
z
" transform="scale(0.015625)"/>
       <path id="DejaVuSans-65" d="M 3597 1894 
L 3597 1613 
L 953 1613 
Q 991 1019 1311 708 
Q 1631 397 2203 397 
Q 2534 397 2845 478 
Q 3156 559 3463 722 
L 3463 178 
Q 3153 47 2828 -22 
Q 2503 -91 2169 -91 
Q 1331 -91 842 396 
Q 353 884 353 1716 
Q 353 2575 817 3079 
Q 1281 3584 2069 3584 
Q 2775 3584 3186 3129 
Q 3597 2675 3597 1894 
z
M 3022 2063 
Q 3016 2534 2758 2815 
Q 2500 3097 2075 3097 
Q 1594 3097 1305 2825 
Q 1016 2553 972 2059 
L 3022 2063 
z
" transform="scale(0.015625)"/>
       <path id="DejaVuSans-6e" d="M 3513 2113 
L 3513 0 
L 2938 0 
L 2938 2094 
Q 2938 2591 2744 2837 
Q 2550 3084 2163 3084 
Q 1697 3084 1428 2787 
Q 1159 2491 1159 1978 
L 1159 0 
L 581 0 
L 581 3500 
L 1159 3500 
L 1159 2956 
Q 1366 3272 1645 3428 
Q 1925 3584 2291 3584 
Q 2894 3584 3203 3211 
Q 3513 2838 3513 2113 
z
" transform="scale(0.015625)"/>
       <path id="DejaVuSans-63" d="M 3122 3366 
L 3122 2828 
Q 2878 2963 2633 3030 
Q 2388 3097 2138 3097 
Q 1578 3097 1268 2742 
Q 959 2388 959 1747 
Q 959 1106 1268 751 
Q 1578 397 2138 397 
Q 2388 397 2633 464 
Q 2878 531 3122 666 
L 3122 134 
Q 2881 22 2623 -34 
Q 2366 -91 2075 -91 
Q 1284 -91 818 406 
Q 353 903 353 1747 
Q 353 2603 823 3093 
Q 1294 3584 2113 3584 
Q 2378 3584 2631 3529 
Q 2884 3475 3122 3366 
z
" transform="scale(0.015625)"/>
       <path id="DejaVuSans-79" d="M 2059 -325 
Q 1816 -950 1584 -1140 
Q 1353 -1331 966 -1331 
L 506 -1331 
L 506 -850 
L 844 -850 
Q 1081 -850 1212 -737 
Q 1344 -625 1503 -206 
L 1606 56 
L 191 3500 
L 800 3500 
L 1894 763 
L 2988 3500 
L 3597 3500 
L 2059 -325 
z
" transform="scale(0.015625)"/>
      </defs>
      <use xlink:href="#DejaVuSans-28"/>
      <use xlink:href="#DejaVuSans-61" transform="translate(39.013672 0)"/>
      <use xlink:href="#DejaVuSans-29" transform="translate(100.292969 0)"/>
      <use xlink:href="#DejaVuSans-20" transform="translate(139.306641 0)"/>
      <use xlink:href="#DejaVuSans-4c" transform="translate(171.09375 0)"/>
      <use xlink:href="#DejaVuSans-61" transform="translate(226.806641 0)"/>
      <use xlink:href="#DejaVuSans-74" transform="translate(288.085938 0)"/>
      <use xlink:href="#DejaVuSans-65" transform="translate(327.294922 0)"/>
      <use xlink:href="#DejaVuSans-6e" transform="translate(388.818359 0)"/>
      <use xlink:href="#DejaVuSans-63" transform="translate(452.197266 0)"/>
      <use xlink:href="#DejaVuSans-79" transform="translate(507.177734 0)"/>
     </g>
     <!--     Ratio -->
     <g transform="translate(25.99625 83.38075) rotate(-90) scale(0.1 -0.1)">
      <defs>
       <path id="DejaVuSans-52" d="M 2841 2188 
Q 3044 2119 3236 1894 
Q 3428 1669 3622 1275 
L 4263 0 
L 3584 0 
L 2988 1197 
Q 2756 1666 2539 1819 
Q 2322 1972 1947 1972 
L 1259 1972 
L 1259 0 
L 628 0 
L 628 4666 
L 2053 4666 
Q 2853 4666 3247 4331 
Q 3641 3997 3641 3322 
Q 3641 2881 3436 2590 
Q 3231 2300 2841 2188 
z
M 1259 4147 
L 1259 2491 
L 2053 2491 
Q 2509 2491 2742 2702 
Q 2975 2913 2975 3322 
Q 2975 3731 2742 3939 
Q 2509 4147 2053 4147 
L 1259 4147 
z
" transform="scale(0.015625)"/>
       <path id="DejaVuSans-69" d="M 603 3500 
L 1178 3500 
L 1178 0 
L 603 0 
L 603 3500 
z
M 603 4863 
L 1178 4863 
L 1178 4134 
L 603 4134 
L 603 4863 
z
" transform="scale(0.015625)"/>
       <path id="DejaVuSans-6f" d="M 1959 3097 
Q 1497 3097 1228 2736 
Q 959 2375 959 1747 
Q 959 1119 1226 758 
Q 1494 397 1959 397 
Q 2419 397 2687 759 
Q 2956 1122 2956 1747 
Q 2956 2369 2687 2733 
Q 2419 3097 1959 3097 
z
M 1959 3584 
Q 2709 3584 3137 3096 
Q 3566 2609 3566 1747 
Q 3566 888 3137 398 
Q 2709 -91 1959 -91 
Q 1206 -91 779 398 
Q 353 888 353 1747 
Q 353 2609 779 3096 
Q 1206 3584 1959 3584 
z
" transform="scale(0.015625)"/>
      </defs>
      <use xlink:href="#DejaVuSans-20"/>
      <use xlink:href="#DejaVuSans-20" transform="translate(31.787109 0)"/>
      <use xlink:href="#DejaVuSans-20" transform="translate(63.574219 0)"/>
      <use xlink:href="#DejaVuSans-20" transform="translate(95.361328 0)"/>
      <use xlink:href="#DejaVuSans-52" transform="translate(127.148438 0)"/>
      <use xlink:href="#DejaVuSans-61" transform="translate(194.380859 0)"/>
      <use xlink:href="#DejaVuSans-74" transform="translate(255.660156 0)"/>
      <use xlink:href="#DejaVuSans-69" transform="translate(294.869141 0)"/>
      <use xlink:href="#DejaVuSans-6f" transform="translate(322.652344 0)"/>
     </g>
    </g>
   </g>
   <g id="patch_3">
    <path d="M 87.477015 101.990125 
L 99.424024 101.990125 
L 99.424024 34.711436 
L 87.477015 34.711436 
z
" clip-path="url(#pdc439dfc2a)" style="fill: #cecece; opacity: 0.9"/>
   </g>
   <g id="patch_4">
    <path d="M 99.424024 101.990125 
L 111.371034 101.990125 
L 111.371034 39.432748 
L 99.424024 39.432748 
z
" clip-path="url(#pdc439dfc2a)" style="fill: #888888; opacity: 0.9"/>
   </g>
   <g id="patch_5">
    <path d="M 149.452126 101.990125 
L 161.399135 101.990125 
L 161.399135 29.990125 
L 149.452126 29.990125 
z
" clip-path="url(#pdc439dfc2a)" style="fill: #cecece; opacity: 0.9"/>
   </g>
   <g id="patch_6">
    <path d="M 161.399135 101.990125 
L 173.346144 101.990125 
L 173.346144 82.220633 
L 161.399135 82.220633 
z
" clip-path="url(#pdc439dfc2a)" style="fill: #888888; opacity: 0.9"/>
   </g>
   <g id="patch_7">
    <path d="M 211.427236 101.990125 
L 223.374245 101.990125 
L 223.374245 29.990125 
L 211.427236 29.990125 
z
" clip-path="url(#pdc439dfc2a)" style="fill: #cecece; opacity: 0.9"/>
   </g>
   <g id="patch_8">
    <path d="M 223.374245 101.990125 
L 235.321254 101.990125 
L 235.321254 31.107642 
L 223.374245 31.107642 
z
" clip-path="url(#pdc439dfc2a)" style="fill: #888888; opacity: 0.9"/>
   </g>
   <g id="patch_9">
    <path d="M 273.402346 101.990125 
L 285.349356 101.990125 
L 285.349356 29.990125 
L 273.402346 29.990125 
z
" clip-path="url(#pdc439dfc2a)" style="fill: #cecece; opacity: 0.9"/>
   </g>
   <g id="patch_10">
    <path d="M 285.349356 101.990125 
L 297.296365 101.990125 
L 297.296365 35.430125 
L 285.349356 35.430125 
z
" clip-path="url(#pdc439dfc2a)" style="fill: #888888; opacity: 0.9"/>
   </g>
   <g id="patch_11">
    <path d="M 335.377457 101.990125 
L 347.324466 101.990125 
L 347.324466 29.990125 
L 335.377457 29.990125 
z
" clip-path="url(#pdc439dfc2a)" style="fill: #cecece; opacity: 0.9"/>
   </g>
   <g id="patch_12">
    <path d="M 347.324466 101.990125 
L 359.271475 101.990125 
L 359.271475 34.490125 
L 347.324466 34.490125 
z
" clip-path="url(#pdc439dfc2a)" style="fill: #888888; opacity: 0.9"/>
   </g>
   <g id="patch_13">
    <path d="M 397.352567 101.990125 
L 409.299576 101.990125 
L 409.299576 29.990125 
L 397.352567 29.990125 
z
" clip-path="url(#pdc439dfc2a)" style="fill: #cecece; opacity: 0.9"/>
   </g>
   <g id="patch_14">
    <path d="M 409.299576 101.990125 
L 421.246586 101.990125 
L 421.246586 34.618696 
L 409.299576 34.618696 
z
" clip-path="url(#pdc439dfc2a)" style="fill: #888888; opacity: 0.9"/>
   </g>
   <g id="patch_15">
    <path d="M 459.327678 101.990125 
L 471.274687 101.990125 
L 471.274687 29.990125 
L 459.327678 29.990125 
z
" clip-path="url(#pdc439dfc2a)" style="fill: #cecece; opacity: 0.9"/>
   </g>
   <g id="patch_16">
    <path d="M 521.302788 101.990125 
L 533.249797 101.990125 
L 533.249797 29.990125 
L 521.302788 29.990125 
z
" clip-path="url(#pdc439dfc2a)" style="fill: #cecece; opacity: 0.9"/>
   </g>
   <g id="patch_17">
    <path d="M 533.249797 101.990125 
L 545.196806 101.990125 
L 545.196806 87.42524 
L 533.249797 87.42524 
z
" clip-path="url(#pdc439dfc2a)" style="fill: #888888; opacity: 0.9"/>
   </g>
   <g id="patch_18">
    <path d="M 583.277898 101.990125 
L 595.224908 101.990125 
L 595.224908 34.104411 
L 583.277898 34.104411 
z
" clip-path="url(#pdc439dfc2a)" style="fill: #cecece; opacity: 0.9"/>
   </g>
   <g id="patch_19">
    <path d="M 645.253009 101.990125 
L 657.200018 101.990125 
L 657.200018 58.790125 
L 645.253009 58.790125 
z
" clip-path="url(#pdc439dfc2a)" style="fill: #cecece; opacity: 0.9"/>
   </g>
   <g id="patch_20">
    <path d="M 75.530006 101.990125 
L 87.477015 101.990125 
L 87.477015 29.990125 
L 75.530006 29.990125 
z
" clip-path="url(#pdc439dfc2a)" style="fill: #f15a24; opacity: 0.9"/>
   </g>
   <g id="patch_21">
    <path d="M 137.505116 101.990125 
L 149.452126 101.990125 
L 149.452126 79.861311 
L 137.505116 79.861311 
z
" clip-path="url(#pdc439dfc2a)" style="fill: #f15a24; opacity: 0.9"/>
   </g>
   <g id="patch_22">
    <path d="M 199.480227 101.990125 
L 211.427236 101.990125 
L 211.427236 52.500103 
L 199.480227 52.500103 
z
" clip-path="url(#pdc439dfc2a)" style="fill: #f15a24; opacity: 0.9"/>
   </g>
   <g id="patch_23">
    <path d="M 261.455337 101.990125 
L 273.402346 101.990125 
L 273.402346 44.390125 
L 261.455337 44.390125 
z
" clip-path="url(#pdc439dfc2a)" style="fill: #f15a24; opacity: 0.9"/>
   </g>
   <g id="patch_24">
    <path d="M 323.430447 101.990125 
L 335.377457 101.990125 
L 335.377457 38.990125 
L 323.430447 38.990125 
z
" clip-path="url(#pdc439dfc2a)" style="fill: #f15a24; opacity: 0.9"/>
   </g>
   <g id="patch_25">
    <path d="M 385.405558 101.990125 
L 397.352567 101.990125 
L 397.352567 42.847268 
L 385.405558 42.847268 
z
" clip-path="url(#pdc439dfc2a)" style="fill: #f15a24; opacity: 0.9"/>
   </g>
   <g id="patch_26">
    <path d="M 447.380668 101.990125 
L 459.327678 101.990125 
L 459.327678 34.525558 
L 447.380668 34.525558 
z
" clip-path="url(#pdc439dfc2a)" style="fill: #f15a24; opacity: 0.9"/>
   </g>
   <g id="patch_27">
    <path d="M 509.355779 101.990125 
L 521.302788 101.990125 
L 521.302788 80.280201 
L 509.355779 80.280201 
z
" clip-path="url(#pdc439dfc2a)" style="fill: #f15a24; opacity: 0.9"/>
   </g>
   <g id="patch_28">
    <path d="M 571.330889 101.990125 
L 583.277898 101.990125 
L 583.277898 29.990125 
L 571.330889 29.990125 
z
" clip-path="url(#pdc439dfc2a)" style="fill: #f15a24; opacity: 0.9"/>
   </g>
   <g id="patch_29">
    <path d="M 633.305999 101.990125 
L 645.253009 101.990125 
L 645.253009 29.990125 
L 633.305999 29.990125 
z
" clip-path="url(#pdc439dfc2a)" style="fill: #f15a24; opacity: 0.9"/>
   </g>
   <g id="patch_30">
    <path d="M 695.28111 101.990125 
L 707.228119 101.990125 
L 707.228119 29.990125 
L 695.28111 29.990125 
z
" clip-path="url(#pdc439dfc2a)" style="fill: #f15a24; opacity: 0.9"/>
   </g>
   <g id="text_5">
    <!-- × -->
    <g transform="translate(473.896316 100.326375) scale(0.08 -0.08)">
     <defs>
      <path id="DejaVuSans-d7" d="M 4488 3438 
L 3059 2003 
L 4488 575 
L 4116 197 
L 2681 1631 
L 1247 197 
L 878 575 
L 2303 2003 
L 878 3438 
L 1247 3816 
L 2681 2381 
L 4116 3816 
L 4488 3438 
z
" transform="scale(0.015625)"/>
     </defs>
     <use xlink:href="#DejaVuSans-d7"/>
    </g>
   </g>
   <g id="text_6">
    <!-- × -->
    <g transform="translate(597.846537 100.326375) scale(0.08 -0.08)">
     <use xlink:href="#DejaVuSans-d7"/>
    </g>
   </g>
   <g id="text_7">
    <!-- × -->
    <g transform="translate(659.821648 100.326375) scale(0.08 -0.08)">
     <use xlink:href="#DejaVuSans-d7"/>
    </g>
   </g>
   <g id="text_8">
    <!-- × -->
    <g transform="translate(709.849749 100.326375) scale(0.08 -0.08)">
     <use xlink:href="#DejaVuSans-d7"/>
    </g>
   </g>
   <g id="text_9">
    <!-- × -->
    <g transform="translate(721.796758 100.326375) scale(0.08 -0.08)">
     <use xlink:href="#DejaVuSans-d7"/>
    </g>
   </g>
   <g id="legend_1">
    <g id="patch_31">
     <path d="M 304.424375 18.798437 
L 324.424375 18.798437 
L 324.424375 11.798437 
L 304.424375 11.798437 
z
" style="fill: #f15a24; opacity: 0.9; stroke: #000000; stroke-width: 0.24; stroke-linejoin: miter"/>
    </g>
    <g id="text_10">
     <!-- Pie -->
     <g transform="translate(329.424375 18.798437) scale(0.1 -0.1)">
      <defs>
       <path id="DejaVuSans-50" d="M 1259 4147 
L 1259 2394 
L 2053 2394 
Q 2494 2394 2734 2622 
Q 2975 2850 2975 3272 
Q 2975 3691 2734 3919 
Q 2494 4147 2053 4147 
L 1259 4147 
z
M 628 4666 
L 2053 4666 
Q 2838 4666 3239 4311 
Q 3641 3956 3641 3272 
Q 3641 2581 3239 2228 
Q 2838 1875 2053 1875 
L 1259 1875 
L 1259 0 
L 628 0 
L 628 4666 
z
" transform="scale(0.015625)"/>
      </defs>
      <use xlink:href="#DejaVuSans-50"/>
      <use xlink:href="#DejaVuSans-69" transform="translate(58.052734 0)"/>
      <use xlink:href="#DejaVuSans-65" transform="translate(85.835938 0)"/>
     </g>
    </g>
    <g id="patch_32">
     <path d="M 354.160313 18.798437 
L 374.160313 18.798437 
L 374.160313 11.798437 
L 354.160313 11.798437 
z
" style="fill: #cecece; opacity: 0.9; stroke: #000000; stroke-width: 0.24; stroke-linejoin: miter"/>
    </g>
    <g id="text_11">
     <!-- vLLM -->
     <g transform="translate(379.160313 18.798437) scale(0.1 -0.1)">
      <defs>
       <path id="DejaVuSans-76" d="M 191 3500 
L 800 3500 
L 1894 563 
L 2988 3500 
L 3597 3500 
L 2284 0 
L 1503 0 
L 191 3500 
z
" transform="scale(0.015625)"/>
       <path id="DejaVuSans-4d" d="M 628 4666 
L 1569 4666 
L 2759 1491 
L 3956 4666 
L 4897 4666 
L 4897 0 
L 4281 0 
L 4281 4097 
L 3078 897 
L 2444 897 
L 1241 4097 
L 1241 0 
L 628 0 
L 628 4666 
z
" transform="scale(0.015625)"/>
      </defs>
      <use xlink:href="#DejaVuSans-76"/>
      <use xlink:href="#DejaVuSans-4c" transform="translate(59.179688 0)"/>
      <use xlink:href="#DejaVuSans-4c" transform="translate(114.892578 0)"/>
      <use xlink:href="#DejaVuSans-4d" transform="translate(170.605469 0)"/>
     </g>
    </g>
    <g id="patch_33">
     <path d="M 414.850938 18.798437 
L 434.850938 18.798437 
L 434.850938 11.798437 
L 414.850938 11.798437 
z
" style="fill: #888888; opacity: 0.9; stroke: #000000; stroke-width: 0.24; stroke-linejoin: miter"/>
    </g>
    <g id="text_12">
     <!-- SGLang -->
     <g transform="translate(439.850938 18.798437) scale(0.1 -0.1)">
      <defs>
       <path id="DejaVuSans-53" d="M 3425 4513 
L 3425 3897 
Q 3066 4069 2747 4153 
Q 2428 4238 2131 4238 
Q 1616 4238 1336 4038 
Q 1056 3838 1056 3469 
Q 1056 3159 1242 3001 
Q 1428 2844 1947 2747 
L 2328 2669 
Q 3034 2534 3370 2195 
Q 3706 1856 3706 1288 
Q 3706 609 3251 259 
Q 2797 -91 1919 -91 
Q 1588 -91 1214 -16 
Q 841 59 441 206 
L 441 856 
Q 825 641 1194 531 
Q 1563 422 1919 422 
Q 2459 422 2753 634 
Q 3047 847 3047 1241 
Q 3047 1584 2836 1778 
Q 2625 1972 2144 2069 
L 1759 2144 
Q 1053 2284 737 2584 
Q 422 2884 422 3419 
Q 422 4038 858 4394 
Q 1294 4750 2059 4750 
Q 2388 4750 2728 4690 
Q 3069 4631 3425 4513 
z
" transform="scale(0.015625)"/>
       <path id="DejaVuSans-47" d="M 3809 666 
L 3809 1919 
L 2778 1919 
L 2778 2438 
L 4434 2438 
L 4434 434 
Q 4069 175 3628 42 
Q 3188 -91 2688 -91 
Q 1594 -91 976 548 
Q 359 1188 359 2328 
Q 359 3472 976 4111 
Q 1594 4750 2688 4750 
Q 3144 4750 3555 4637 
Q 3966 4525 4313 4306 
L 4313 3634 
Q 3963 3931 3569 4081 
Q 3175 4231 2741 4231 
Q 1884 4231 1454 3753 
Q 1025 3275 1025 2328 
Q 1025 1384 1454 906 
Q 1884 428 2741 428 
Q 3075 428 3337 486 
Q 3600 544 3809 666 
z
" transform="scale(0.015625)"/>
       <path id="DejaVuSans-67" d="M 2906 1791 
Q 2906 2416 2648 2759 
Q 2391 3103 1925 3103 
Q 1463 3103 1205 2759 
Q 947 2416 947 1791 
Q 947 1169 1205 825 
Q 1463 481 1925 481 
Q 2391 481 2648 825 
Q 2906 1169 2906 1791 
z
M 3481 434 
Q 3481 -459 3084 -895 
Q 2688 -1331 1869 -1331 
Q 1566 -1331 1297 -1286 
Q 1028 -1241 775 -1147 
L 775 -588 
Q 1028 -725 1275 -790 
Q 1522 -856 1778 -856 
Q 2344 -856 2625 -561 
Q 2906 -266 2906 331 
L 2906 616 
Q 2728 306 2450 153 
Q 2172 0 1784 0 
Q 1141 0 747 490 
Q 353 981 353 1791 
Q 353 2603 747 3093 
Q 1141 3584 1784 3584 
Q 2172 3584 2450 3431 
Q 2728 3278 2906 2969 
L 2906 3500 
L 3481 3500 
L 3481 434 
z
" transform="scale(0.015625)"/>
      </defs>
      <use xlink:href="#DejaVuSans-53"/>
      <use xlink:href="#DejaVuSans-47" transform="translate(63.476562 0)"/>
      <use xlink:href="#DejaVuSans-4c" transform="translate(140.966797 0)"/>
      <use xlink:href="#DejaVuSans-61" transform="translate(196.679688 0)"/>
      <use xlink:href="#DejaVuSans-6e" transform="translate(257.958984 0)"/>
      <use xlink:href="#DejaVuSans-67" transform="translate(321.337891 0)"/>
     </g>
    </g>
   </g>
  </g>
  <g id="axes_2">
   <g id="patch_34">
    <path d="M 56.579063 192.710125 
L 726.179062 192.710125 
L 726.179062 117.110125 
L 56.579063 117.110125 
z
" style="fill: #ffffff; stroke: #000000; stroke-width: 0.5; stroke-linejoin: miter"/>
   </g>
   <g id="matplotlib.axis_3">
    <g id="xtick_12">
     <g id="line2d_15">
      <g>
       <use xlink:href="#m31dc9ac9e3" x="93.45052" y="192.710125" style="stroke: #000000; stroke-width: 0.8"/>
      </g>
     </g>
     <g id="text_13">
      <!-- Text comp. -->
      <g transform="translate(66.30677 206.308562) scale(0.1 -0.1)">
       <defs>
        <path id="DejaVuSans-54" d="M -19 4666 
L 3928 4666 
L 3928 4134 
L 2272 4134 
L 2272 0 
L 1638 0 
L 1638 4134 
L -19 4134 
L -19 4666 
z
" transform="scale(0.015625)"/>
        <path id="DejaVuSans-78" d="M 3513 3500 
L 2247 1797 
L 3578 0 
L 2900 0 
L 1881 1375 
L 863 0 
L 184 0 
L 1544 1831 
L 300 3500 
L 978 3500 
L 1906 2253 
L 2834 3500 
L 3513 3500 
z
" transform="scale(0.015625)"/>
        <path id="DejaVuSans-6d" d="M 3328 2828 
Q 3544 3216 3844 3400 
Q 4144 3584 4550 3584 
Q 5097 3584 5394 3201 
Q 5691 2819 5691 2113 
L 5691 0 
L 5113 0 
L 5113 2094 
Q 5113 2597 4934 2840 
Q 4756 3084 4391 3084 
Q 3944 3084 3684 2787 
Q 3425 2491 3425 1978 
L 3425 0 
L 2847 0 
L 2847 2094 
Q 2847 2600 2669 2842 
Q 2491 3084 2119 3084 
Q 1678 3084 1418 2786 
Q 1159 2488 1159 1978 
L 1159 0 
L 581 0 
L 581 3500 
L 1159 3500 
L 1159 2956 
Q 1356 3278 1631 3431 
Q 1906 3584 2284 3584 
Q 2666 3584 2933 3390 
Q 3200 3197 3328 2828 
z
" transform="scale(0.015625)"/>
        <path id="DejaVuSans-70" d="M 1159 525 
L 1159 -1331 
L 581 -1331 
L 581 3500 
L 1159 3500 
L 1159 2969 
Q 1341 3281 1617 3432 
Q 1894 3584 2278 3584 
Q 2916 3584 3314 3078 
Q 3713 2572 3713 1747 
Q 3713 922 3314 415 
Q 2916 -91 2278 -91 
Q 1894 -91 1617 61 
Q 1341 213 1159 525 
z
M 3116 1747 
Q 3116 2381 2855 2742 
Q 2594 3103 2138 3103 
Q 1681 3103 1420 2742 
Q 1159 2381 1159 1747 
Q 1159 1113 1420 752 
Q 1681 391 2138 391 
Q 2594 391 2855 752 
Q 3116 1113 3116 1747 
z
" transform="scale(0.015625)"/>
       </defs>
       <use xlink:href="#DejaVuSans-54"/>
       <use xlink:href="#DejaVuSans-65" transform="translate(44.083984 0)"/>
       <use xlink:href="#DejaVuSans-78" transform="translate(103.857422 0)"/>
       <use xlink:href="#DejaVuSans-74" transform="translate(163.037109 0)"/>
       <use xlink:href="#DejaVuSans-20" transform="translate(202.246094 0)"/>
       <use xlink:href="#DejaVuSans-63" transform="translate(234.033203 0)"/>
       <use xlink:href="#DejaVuSans-6f" transform="translate(289.013672 0)"/>
       <use xlink:href="#DejaVuSans-6d" transform="translate(350.195312 0)"/>
       <use xlink:href="#DejaVuSans-70" transform="translate(447.607422 0)"/>
       <use xlink:href="#DejaVuSans-2e" transform="translate(511.083984 0)"/>
      </g>
     </g>
    </g>
    <g id="xtick_13">
     <g id="line2d_16">
      <g>
       <use xlink:href="#m31dc9ac9e3" x="155.42563" y="192.710125" style="stroke: #000000; stroke-width: 0.8"/>
      </g>
     </g>
     <g id="text_14">
      <!-- PrefixTree -->
      <g transform="translate(130.957661 206.308562) scale(0.1 -0.1)">
       <defs>
        <path id="DejaVuSans-72" d="M 2631 2963 
Q 2534 3019 2420 3045 
Q 2306 3072 2169 3072 
Q 1681 3072 1420 2755 
Q 1159 2438 1159 1844 
L 1159 0 
L 581 0 
L 581 3500 
L 1159 3500 
L 1159 2956 
Q 1341 3275 1631 3429 
Q 1922 3584 2338 3584 
Q 2397 3584 2469 3576 
Q 2541 3569 2628 3553 
L 2631 2963 
z
" transform="scale(0.015625)"/>
        <path id="DejaVuSans-66" d="M 2375 4863 
L 2375 4384 
L 1825 4384 
Q 1516 4384 1395 4259 
Q 1275 4134 1275 3809 
L 1275 3500 
L 2222 3500 
L 2222 3053 
L 1275 3053 
L 1275 0 
L 697 0 
L 697 3053 
L 147 3053 
L 147 3500 
L 697 3500 
L 697 3744 
Q 697 4328 969 4595 
Q 1241 4863 1831 4863 
L 2375 4863 
z
" transform="scale(0.015625)"/>
       </defs>
       <use xlink:href="#DejaVuSans-50"/>
       <use xlink:href="#DejaVuSans-72" transform="translate(58.552734 0)"/>
       <use xlink:href="#DejaVuSans-65" transform="translate(97.416016 0)"/>
       <use xlink:href="#DejaVuSans-66" transform="translate(158.939453 0)"/>
       <use xlink:href="#DejaVuSans-69" transform="translate(194.144531 0)"/>
       <use xlink:href="#DejaVuSans-78" transform="translate(221.927734 0)"/>
       <use xlink:href="#DejaVuSans-54" transform="translate(281.107422 0)"/>
       <use xlink:href="#DejaVuSans-72" transform="translate(327.441406 0)"/>
       <use xlink:href="#DejaVuSans-65" transform="translate(366.304688 0)"/>
       <use xlink:href="#DejaVuSans-65" transform="translate(427.828125 0)"/>
      </g>
     </g>
    </g>
    <g id="xtick_14">
     <g id="line2d_17">
      <g>
       <use xlink:href="#m31dc9ac9e3" x="217.400741" y="192.710125" style="stroke: #000000; stroke-width: 0.8"/>
      </g>
     </g>
     <g id="text_15">
      <!-- ToT -->
      <g transform="translate(209.083553 206.308562) scale(0.1 -0.1)">
       <use xlink:href="#DejaVuSans-54"/>
       <use xlink:href="#DejaVuSans-6f" transform="translate(44.083984 0)"/>
       <use xlink:href="#DejaVuSans-54" transform="translate(105.265625 0)"/>
      </g>
     </g>
    </g>
    <g id="xtick_15">
     <g id="line2d_18">
      <g>
       <use xlink:href="#m31dc9ac9e3" x="279.375851" y="192.710125" style="stroke: #000000; stroke-width: 0.8"/>
      </g>
     </g>
     <g id="text_16">
      <!-- RoT -->
      <g transform="translate(270.013351 206.308562) scale(0.1 -0.1)">
       <use xlink:href="#DejaVuSans-52"/>
       <use xlink:href="#DejaVuSans-6f" transform="translate(64.982422 0)"/>
       <use xlink:href="#DejaVuSans-54" transform="translate(126.164062 0)"/>
      </g>
     </g>
    </g>
    <g id="xtick_16">
     <g id="line2d_19">
      <g>
       <use xlink:href="#m31dc9ac9e3" x="341.350961" y="192.710125" style="stroke: #000000; stroke-width: 0.8"/>
      </g>
     </g>
     <g id="text_17">
      <!-- GoT -->
      <g transform="translate(331.363461 206.308562) scale(0.1 -0.1)">
       <use xlink:href="#DejaVuSans-47"/>
       <use xlink:href="#DejaVuSans-6f" transform="translate(77.490234 0)"/>
       <use xlink:href="#DejaVuSans-54" transform="translate(138.671875 0)"/>
      </g>
     </g>
    </g>
    <g id="xtick_17">
     <g id="line2d_20">
      <g>
       <use xlink:href="#m31dc9ac9e3" x="403.326072" y="192.710125" style="stroke: #000000; stroke-width: 0.8"/>
      </g>
     </g>
     <g id="text_18">
      <!-- SKoT -->
      <g transform="translate(391.009665 206.308562) scale(0.1 -0.1)">
       <defs>
        <path id="DejaVuSans-4b" d="M 628 4666 
L 1259 4666 
L 1259 2694 
L 3353 4666 
L 4166 4666 
L 1850 2491 
L 4331 0 
L 3500 0 
L 1259 2247 
L 1259 0 
L 628 0 
L 628 4666 
z
" transform="scale(0.015625)"/>
       </defs>
       <use xlink:href="#DejaVuSans-53"/>
       <use xlink:href="#DejaVuSans-4b" transform="translate(63.476562 0)"/>
       <use xlink:href="#DejaVuSans-6f" transform="translate(124.052734 0)"/>
       <use xlink:href="#DejaVuSans-54" transform="translate(185.234375 0)"/>
      </g>
     </g>
    </g>
    <g id="xtick_18">
     <g id="line2d_21">
      <g>
       <use xlink:href="#m31dc9ac9e3" x="465.301182" y="192.710125" style="stroke: #000000; stroke-width: 0.8"/>
      </g>
     </g>
     <g id="text_19">
      <!-- Cache -->
      <g transform="translate(449.751182 206.308562) scale(0.1 -0.1)">
       <defs>
        <path id="DejaVuSans-43" d="M 4122 4306 
L 4122 3641 
Q 3803 3938 3442 4084 
Q 3081 4231 2675 4231 
Q 1875 4231 1450 3742 
Q 1025 3253 1025 2328 
Q 1025 1406 1450 917 
Q 1875 428 2675 428 
Q 3081 428 3442 575 
Q 3803 722 4122 1019 
L 4122 359 
Q 3791 134 3420 21 
Q 3050 -91 2638 -91 
Q 1578 -91 968 557 
Q 359 1206 359 2328 
Q 359 3453 968 4101 
Q 1578 4750 2638 4750 
Q 3056 4750 3426 4639 
Q 3797 4528 4122 4306 
z
" transform="scale(0.015625)"/>
        <path id="DejaVuSans-68" d="M 3513 2113 
L 3513 0 
L 2938 0 
L 2938 2094 
Q 2938 2591 2744 2837 
Q 2550 3084 2163 3084 
Q 1697 3084 1428 2787 
Q 1159 2491 1159 1978 
L 1159 0 
L 581 0 
L 581 4863 
L 1159 4863 
L 1159 2956 
Q 1366 3272 1645 3428 
Q 1925 3584 2291 3584 
Q 2894 3584 3203 3211 
Q 3513 2838 3513 2113 
z
" transform="scale(0.015625)"/>
       </defs>
       <use xlink:href="#DejaVuSans-43"/>
       <use xlink:href="#DejaVuSans-61" transform="translate(69.824219 0)"/>
       <use xlink:href="#DejaVuSans-63" transform="translate(131.103516 0)"/>
       <use xlink:href="#DejaVuSans-68" transform="translate(186.083984 0)"/>
       <use xlink:href="#DejaVuSans-65" transform="translate(249.462891 0)"/>
      </g>
     </g>
    </g>
    <g id="xtick_19">
     <g id="line2d_22">
      <g>
       <use xlink:href="#m31dc9ac9e3" x="527.276293" y="192.710125" style="stroke: #000000; stroke-width: 0.8"/>
      </g>
     </g>
     <g id="text_20">
      <!-- EBNF -->
      <g transform="translate(514.070043 206.308562) scale(0.1 -0.1)">
       <defs>
        <path id="DejaVuSans-45" d="M 628 4666 
L 3578 4666 
L 3578 4134 
L 1259 4134 
L 1259 2753 
L 3481 2753 
L 3481 2222 
L 1259 2222 
L 1259 531 
L 3634 531 
L 3634 0 
L 628 0 
L 628 4666 
z
" transform="scale(0.015625)"/>
        <path id="DejaVuSans-42" d="M 1259 2228 
L 1259 519 
L 2272 519 
Q 2781 519 3026 730 
Q 3272 941 3272 1375 
Q 3272 1813 3026 2020 
Q 2781 2228 2272 2228 
L 1259 2228 
z
M 1259 4147 
L 1259 2741 
L 2194 2741 
Q 2656 2741 2882 2914 
Q 3109 3088 3109 3444 
Q 3109 3797 2882 3972 
Q 2656 4147 2194 4147 
L 1259 4147 
z
M 628 4666 
L 2241 4666 
Q 2963 4666 3353 4366 
Q 3744 4066 3744 3513 
Q 3744 3084 3544 2831 
Q 3344 2578 2956 2516 
Q 3422 2416 3680 2098 
Q 3938 1781 3938 1306 
Q 3938 681 3513 340 
Q 3088 0 2303 0 
L 628 0 
L 628 4666 
z
" transform="scale(0.015625)"/>
        <path id="DejaVuSans-4e" d="M 628 4666 
L 1478 4666 
L 3547 763 
L 3547 4666 
L 4159 4666 
L 4159 0 
L 3309 0 
L 1241 3903 
L 1241 0 
L 628 0 
L 628 4666 
z
" transform="scale(0.015625)"/>
        <path id="DejaVuSans-46" d="M 628 4666 
L 3309 4666 
L 3309 4134 
L 1259 4134 
L 1259 2759 
L 3109 2759 
L 3109 2228 
L 1259 2228 
L 1259 0 
L 628 0 
L 628 4666 
z
" transform="scale(0.015625)"/>
       </defs>
       <use xlink:href="#DejaVuSans-45"/>
       <use xlink:href="#DejaVuSans-42" transform="translate(63.183594 0)"/>
       <use xlink:href="#DejaVuSans-4e" transform="translate(131.787109 0)"/>
       <use xlink:href="#DejaVuSans-46" transform="translate(206.591797 0)"/>
      </g>
     </g>
    </g>
    <g id="xtick_20">
     <g id="line2d_23">
      <g>
       <use xlink:href="#m31dc9ac9e3" x="589.251403" y="192.710125" style="stroke: #000000; stroke-width: 0.8"/>
      </g>
     </g>
     <g id="text_21">
      <!-- SpecDec -->
      <g transform="translate(567.401403 206.308562) scale(0.1 -0.1)">
       <defs>
        <path id="DejaVuSans-44" d="M 1259 4147 
L 1259 519 
L 2022 519 
Q 2988 519 3436 956 
Q 3884 1394 3884 2338 
Q 3884 3275 3436 3711 
Q 2988 4147 2022 4147 
L 1259 4147 
z
M 628 4666 
L 1925 4666 
Q 3281 4666 3915 4102 
Q 4550 3538 4550 2338 
Q 4550 1131 3912 565 
Q 3275 0 1925 0 
L 628 0 
L 628 4666 
z
" transform="scale(0.015625)"/>
       </defs>
       <use xlink:href="#DejaVuSans-53"/>
       <use xlink:href="#DejaVuSans-70" transform="translate(63.476562 0)"/>
       <use xlink:href="#DejaVuSans-65" transform="translate(126.953125 0)"/>
       <use xlink:href="#DejaVuSans-63" transform="translate(188.476562 0)"/>
       <use xlink:href="#DejaVuSans-44" transform="translate(243.457031 0)"/>
       <use xlink:href="#DejaVuSans-65" transform="translate(320.458984 0)"/>
       <use xlink:href="#DejaVuSans-63" transform="translate(381.982422 0)"/>
      </g>
     </g>
    </g>
    <g id="xtick_21">
     <g id="line2d_24">
      <g>
       <use xlink:href="#m31dc9ac9e3" x="651.226513" y="192.710125" style="stroke: #000000; stroke-width: 0.8"/>
      </g>
     </g>
     <g id="text_22">
      <!-- Beam -->
      <g transform="translate(636.785107 206.308562) scale(0.1 -0.1)">
       <use xlink:href="#DejaVuSans-42"/>
       <use xlink:href="#DejaVuSans-65" transform="translate(68.603516 0)"/>
       <use xlink:href="#DejaVuSans-61" transform="translate(130.126953 0)"/>
       <use xlink:href="#DejaVuSans-6d" transform="translate(191.40625 0)"/>
      </g>
     </g>
    </g>
    <g id="xtick_22">
     <g id="line2d_25">
      <g>
       <use xlink:href="#m31dc9ac9e3" x="713.201624" y="192.710125" style="stroke: #000000; stroke-width: 0.8"/>
      </g>
     </g>
     <g id="text_23">
      <!-- AttnSink -->
      <g transform="translate(692.152405 206.308562) scale(0.1 -0.1)">
       <defs>
        <path id="DejaVuSans-41" d="M 2188 4044 
L 1331 1722 
L 3047 1722 
L 2188 4044 
z
M 1831 4666 
L 2547 4666 
L 4325 0 
L 3669 0 
L 3244 1197 
L 1141 1197 
L 716 0 
L 50 0 
L 1831 4666 
z
" transform="scale(0.015625)"/>
        <path id="DejaVuSans-6b" d="M 581 4863 
L 1159 4863 
L 1159 1991 
L 2875 3500 
L 3609 3500 
L 1753 1863 
L 3688 0 
L 2938 0 
L 1159 1709 
L 1159 0 
L 581 0 
L 581 4863 
z
" transform="scale(0.015625)"/>
       </defs>
       <use xlink:href="#DejaVuSans-41"/>
       <use xlink:href="#DejaVuSans-74" transform="translate(66.658203 0)"/>
       <use xlink:href="#DejaVuSans-74" transform="translate(105.867188 0)"/>
       <use xlink:href="#DejaVuSans-6e" transform="translate(145.076172 0)"/>
       <use xlink:href="#DejaVuSans-53" transform="translate(208.455078 0)"/>
       <use xlink:href="#DejaVuSans-69" transform="translate(271.931641 0)"/>
       <use xlink:href="#DejaVuSans-6e" transform="translate(299.714844 0)"/>
       <use xlink:href="#DejaVuSans-6b" transform="translate(363.09375 0)"/>
      </g>
     </g>
    </g>
   </g>
   <g id="matplotlib.axis_4">
    <g id="ytick_4">
     <g id="line2d_26">
      <g>
       <use xlink:href="#mf0fd4f4283" x="56.579063" y="192.710125" style="stroke: #000000; stroke-width: 0.8"/>
      </g>
     </g>
     <g id="text_24">
      <!-- 0.0 -->
      <g transform="translate(32.075938 196.509344) scale(0.1 -0.1)">
       <use xlink:href="#DejaVuSans-30"/>
       <use xlink:href="#DejaVuSans-2e" transform="translate(63.623047 0)"/>
       <use xlink:href="#DejaVuSans-30" transform="translate(95.410156 0)"/>
      </g>
     </g>
    </g>
    <g id="ytick_5">
     <g id="line2d_27">
      <g>
       <use xlink:href="#mf0fd4f4283" x="56.579063" y="156.710125" style="stroke: #000000; stroke-width: 0.8"/>
      </g>
     </g>
     <g id="text_25">
      <!-- 0.5 -->
      <g transform="translate(32.075938 160.509344) scale(0.1 -0.1)">
       <use xlink:href="#DejaVuSans-30"/>
       <use xlink:href="#DejaVuSans-2e" transform="translate(63.623047 0)"/>
       <use xlink:href="#DejaVuSans-35" transform="translate(95.410156 0)"/>
      </g>
     </g>
    </g>
    <g id="ytick_6">
     <g id="line2d_28">
      <g>
       <use xlink:href="#mf0fd4f4283" x="56.579063" y="120.710125" style="stroke: #000000; stroke-width: 0.8"/>
      </g>
     </g>
     <g id="text_26">
      <!-- 1.0 -->
      <g transform="translate(32.075938 124.509344) scale(0.1 -0.1)">
       <use xlink:href="#DejaVuSans-31"/>
       <use xlink:href="#DejaVuSans-2e" transform="translate(63.623047 0)"/>
       <use xlink:href="#DejaVuSans-30" transform="translate(95.410156 0)"/>
      </g>
     </g>
    </g>
    <g id="text_27">
     <!-- (b) Throughput -->
     <g transform="translate(14.798438 192.614812) rotate(-90) scale(0.1 -0.1)">
      <defs>
       <path id="DejaVuSans-62" d="M 3116 1747 
Q 3116 2381 2855 2742 
Q 2594 3103 2138 3103 
Q 1681 3103 1420 2742 
Q 1159 2381 1159 1747 
Q 1159 1113 1420 752 
Q 1681 391 2138 391 
Q 2594 391 2855 752 
Q 3116 1113 3116 1747 
z
M 1159 2969 
Q 1341 3281 1617 3432 
Q 1894 3584 2278 3584 
Q 2916 3584 3314 3078 
Q 3713 2572 3713 1747 
Q 3713 922 3314 415 
Q 2916 -91 2278 -91 
Q 1894 -91 1617 61 
Q 1341 213 1159 525 
L 1159 0 
L 581 0 
L 581 4863 
L 1159 4863 
L 1159 2969 
z
" transform="scale(0.015625)"/>
       <path id="DejaVuSans-75" d="M 544 1381 
L 544 3500 
L 1119 3500 
L 1119 1403 
Q 1119 906 1312 657 
Q 1506 409 1894 409 
Q 2359 409 2629 706 
Q 2900 1003 2900 1516 
L 2900 3500 
L 3475 3500 
L 3475 0 
L 2900 0 
L 2900 538 
Q 2691 219 2414 64 
Q 2138 -91 1772 -91 
Q 1169 -91 856 284 
Q 544 659 544 1381 
z
M 1991 3584 
L 1991 3584 
z
" transform="scale(0.015625)"/>
      </defs>
      <use xlink:href="#DejaVuSans-28"/>
      <use xlink:href="#DejaVuSans-62" transform="translate(39.013672 0)"/>
      <use xlink:href="#DejaVuSans-29" transform="translate(102.490234 0)"/>
      <use xlink:href="#DejaVuSans-20" transform="translate(141.503906 0)"/>
      <use xlink:href="#DejaVuSans-54" transform="translate(173.291016 0)"/>
      <use xlink:href="#DejaVuSans-68" transform="translate(234.375 0)"/>
      <use xlink:href="#DejaVuSans-72" transform="translate(297.753906 0)"/>
      <use xlink:href="#DejaVuSans-6f" transform="translate(336.617188 0)"/>
      <use xlink:href="#DejaVuSans-75" transform="translate(397.798828 0)"/>
      <use xlink:href="#DejaVuSans-67" transform="translate(461.177734 0)"/>
      <use xlink:href="#DejaVuSans-68" transform="translate(524.654297 0)"/>
      <use xlink:href="#DejaVuSans-70" transform="translate(588.033203 0)"/>
      <use xlink:href="#DejaVuSans-75" transform="translate(651.509766 0)"/>
      <use xlink:href="#DejaVuSans-74" transform="translate(714.888672 0)"/>
     </g>
     <!--     Ratio -->
     <g transform="translate(25.99625 174.10075) rotate(-90) scale(0.1 -0.1)">
      <use xlink:href="#DejaVuSans-20"/>
      <use xlink:href="#DejaVuSans-20" transform="translate(31.787109 0)"/>
      <use xlink:href="#DejaVuSans-20" transform="translate(63.574219 0)"/>
      <use xlink:href="#DejaVuSans-20" transform="translate(95.361328 0)"/>
      <use xlink:href="#DejaVuSans-52" transform="translate(127.148438 0)"/>
      <use xlink:href="#DejaVuSans-61" transform="translate(194.380859 0)"/>
      <use xlink:href="#DejaVuSans-74" transform="translate(255.660156 0)"/>
      <use xlink:href="#DejaVuSans-69" transform="translate(294.869141 0)"/>
      <use xlink:href="#DejaVuSans-6f" transform="translate(322.652344 0)"/>
     </g>
    </g>
   </g>
   <g id="patch_35">
    <path d="M 87.477015 192.710125 
L 99.424024 192.710125 
L 99.424024 128.875073 
L 87.477015 128.875073 
z
" clip-path="url(#pb183a1a4ae)" style="fill: #cecece; opacity: 0.9"/>
   </g>
   <g id="patch_36">
    <path d="M 99.424024 192.710125 
L 111.371034 192.710125 
L 111.371034 120.710125 
L 99.424024 120.710125 
z
" clip-path="url(#pb183a1a4ae)" style="fill: #888888; opacity: 0.9"/>
   </g>
   <g id="patch_37">
    <path d="M 149.452126 192.710125 
L 161.399135 192.710125 
L 161.399135 151.535813 
L 149.452126 151.535813 
z
" clip-path="url(#pb183a1a4ae)" style="fill: #cecece; opacity: 0.9"/>
   </g>
   <g id="patch_38">
    <path d="M 161.399135 192.710125 
L 173.346144 192.710125 
L 173.346144 127.755997 
L 161.399135 127.755997 
z
" clip-path="url(#pb183a1a4ae)" style="fill: #888888; opacity: 0.9"/>
   </g>
   <g id="patch_39">
    <path d="M 211.427236 192.710125 
L 223.374245 192.710125 
L 223.374245 154.354985 
L 211.427236 154.354985 
z
" clip-path="url(#pb183a1a4ae)" style="fill: #cecece; opacity: 0.9"/>
   </g>
   <g id="patch_40">
    <path d="M 223.374245 192.710125 
L 235.321254 192.710125 
L 235.321254 124.971807 
L 223.374245 124.971807 
z
" clip-path="url(#pb183a1a4ae)" style="fill: #888888; opacity: 0.9"/>
   </g>
   <g id="patch_41">
    <path d="M 273.402346 192.710125 
L 285.349356 192.710125 
L 285.349356 152.948931 
L 273.402346 152.948931 
z
" clip-path="url(#pb183a1a4ae)" style="fill: #cecece; opacity: 0.9"/>
   </g>
   <g id="patch_42">
    <path d="M 285.349356 192.710125 
L 297.296365 192.710125 
L 297.296365 134.680274 
L 285.349356 134.680274 
z
" clip-path="url(#pb183a1a4ae)" style="fill: #888888; opacity: 0.9"/>
   </g>
   <g id="patch_43">
    <path d="M 335.377457 192.710125 
L 347.324466 192.710125 
L 347.324466 153.724759 
L 335.377457 153.724759 
z
" clip-path="url(#pb183a1a4ae)" style="fill: #cecece; opacity: 0.9"/>
   </g>
   <g id="patch_44">
    <path d="M 347.324466 192.710125 
L 359.271475 192.710125 
L 359.271475 133.968662 
L 347.324466 133.968662 
z
" clip-path="url(#pb183a1a4ae)" style="fill: #888888; opacity: 0.9"/>
   </g>
   <g id="patch_45">
    <path d="M 397.352567 192.710125 
L 409.299576 192.710125 
L 409.299576 149.638177 
L 397.352567 149.638177 
z
" clip-path="url(#pb183a1a4ae)" style="fill: #cecece; opacity: 0.9"/>
   </g>
   <g id="patch_46">
    <path d="M 409.299576 192.710125 
L 421.246586 192.710125 
L 421.246586 134.6212 
L 409.299576 134.6212 
z
" clip-path="url(#pb183a1a4ae)" style="fill: #888888; opacity: 0.9"/>
   </g>
   <g id="patch_47">
    <path d="M 459.327678 192.710125 
L 471.274687 192.710125 
L 471.274687 138.49836 
L 459.327678 138.49836 
z
" clip-path="url(#pb183a1a4ae)" style="fill: #cecece; opacity: 0.9"/>
   </g>
   <g id="patch_48">
    <path d="M 521.302788 192.710125 
L 533.249797 192.710125 
L 533.249797 189.070565 
L 521.302788 189.070565 
z
" clip-path="url(#pb183a1a4ae)" style="fill: #cecece; opacity: 0.9"/>
   </g>
   <g id="patch_49">
    <path d="M 533.249797 192.710125 
L 545.196806 192.710125 
L 545.196806 125.457378 
L 533.249797 125.457378 
z
" clip-path="url(#pb183a1a4ae)" style="fill: #888888; opacity: 0.9"/>
   </g>
   <g id="patch_50">
    <path d="M 583.277898 192.710125 
L 595.224908 192.710125 
L 595.224908 128.622213 
L 583.277898 128.622213 
z
" clip-path="url(#pb183a1a4ae)" style="fill: #cecece; opacity: 0.9"/>
   </g>
   <g id="patch_51">
    <path d="M 645.253009 192.710125 
L 657.200018 192.710125 
L 657.200018 152.524078 
L 645.253009 152.524078 
z
" clip-path="url(#pb183a1a4ae)" style="fill: #cecece; opacity: 0.9"/>
   </g>
   <g id="patch_52">
    <path d="M 75.530006 192.710125 
L 87.477015 192.710125 
L 87.477015 123.679197 
L 75.530006 123.679197 
z
" clip-path="url(#pb183a1a4ae)" style="fill: #f15a24; opacity: 0.9"/>
   </g>
   <g id="patch_53">
    <path d="M 137.505116 192.710125 
L 149.452126 192.710125 
L 149.452126 120.710125 
L 137.505116 120.710125 
z
" clip-path="url(#pb183a1a4ae)" style="fill: #f15a24; opacity: 0.9"/>
   </g>
   <g id="patch_54">
    <path d="M 199.480227 192.710125 
L 211.427236 192.710125 
L 211.427236 120.710125 
L 199.480227 120.710125 
z
" clip-path="url(#pb183a1a4ae)" style="fill: #f15a24; opacity: 0.9"/>
   </g>
   <g id="patch_55">
    <path d="M 261.455337 192.710125 
L 273.402346 192.710125 
L 273.402346 120.710125 
L 261.455337 120.710125 
z
" clip-path="url(#pb183a1a4ae)" style="fill: #f15a24; opacity: 0.9"/>
   </g>
   <g id="patch_56">
    <path d="M 323.430447 192.710125 
L 335.377457 192.710125 
L 335.377457 120.710125 
L 323.430447 120.710125 
z
" clip-path="url(#pb183a1a4ae)" style="fill: #f15a24; opacity: 0.9"/>
   </g>
   <g id="patch_57">
    <path d="M 385.405558 192.710125 
L 397.352567 192.710125 
L 397.352567 120.710125 
L 385.405558 120.710125 
z
" clip-path="url(#pb183a1a4ae)" style="fill: #f15a24; opacity: 0.9"/>
   </g>
   <g id="patch_58">
    <path d="M 447.380668 192.710125 
L 459.327678 192.710125 
L 459.327678 120.710125 
L 447.380668 120.710125 
z
" clip-path="url(#pb183a1a4ae)" style="fill: #f15a24; opacity: 0.9"/>
   </g>
   <g id="patch_59">
    <path d="M 509.355779 192.710125 
L 521.302788 192.710125 
L 521.302788 120.710125 
L 509.355779 120.710125 
z
" clip-path="url(#pb183a1a4ae)" style="fill: #f15a24; opacity: 0.9"/>
   </g>
   <g id="patch_60">
    <path d="M 571.330889 192.710125 
L 583.277898 192.710125 
L 583.277898 120.710125 
L 571.330889 120.710125 
z
" clip-path="url(#pb183a1a4ae)" style="fill: #f15a24; opacity: 0.9"/>
   </g>
   <g id="patch_61">
    <path d="M 633.305999 192.710125 
L 645.253009 192.710125 
L 645.253009 120.710125 
L 633.305999 120.710125 
z
" clip-path="url(#pb183a1a4ae)" style="fill: #f15a24; opacity: 0.9"/>
   </g>
   <g id="patch_62">
    <path d="M 695.28111 192.710125 
L 707.228119 192.710125 
L 707.228119 120.710125 
L 695.28111 120.710125 
z
" clip-path="url(#pb183a1a4ae)" style="fill: #f15a24; opacity: 0.9"/>
   </g>
   <g id="text_28">
    <!-- × -->
    <g transform="translate(473.896316 191.046375) scale(0.08 -0.08)">
     <use xlink:href="#DejaVuSans-d7"/>
    </g>
   </g>
   <g id="text_29">
    <!-- × -->
    <g transform="translate(597.846537 191.046375) scale(0.08 -0.08)">
     <use xlink:href="#DejaVuSans-d7"/>
    </g>
   </g>
   <g id="text_30">
    <!-- × -->
    <g transform="translate(659.821648 191.046375) scale(0.08 -0.08)">
     <use xlink:href="#DejaVuSans-d7"/>
    </g>
   </g>
   <g id="text_31">
    <!-- × -->
    <g transform="translate(709.849749 191.046375) scale(0.08 -0.08)">
     <use xlink:href="#DejaVuSans-d7"/>
    </g>
   </g>
   <g id="text_32">
    <!-- × -->
    <g transform="translate(721.796758 191.046375) scale(0.08 -0.08)">
     <use xlink:href="#DejaVuSans-d7"/>
    </g>
   </g>
  </g>
 </g>
 <defs>
  <clipPath id="pdc439dfc2a">
   <rect x="56.579063" y="26.390125" width="669.6" height="75.6"/>
  </clipPath>
  <clipPath id="pb183a1a4ae">
   <rect x="56.579063" y="117.110125" width="669.6" height="75.6"/>
  </clipPath>
 </defs>
</svg>
